<?xml version="1.0" encoding="utf-8" standalone="no"?>
<!DOCTYPE svg PUBLIC "-//W3C//DTD SVG 1.1//EN"
  "http://www.w3.org/Graphics/SVG/1.1/DTD/svg11.dtd">
<!-- Created with matplotlib (https://matplotlib.org/) -->
<svg height="595.275591pt" version="1.1" viewBox="0 0 841.889764 595.275591" width="841.889764pt" xmlns="http://www.w3.org/2000/svg" xmlns:xlink="http://www.w3.org/1999/xlink">
 <defs>
  <style type="text/css">
*{stroke-linecap:butt;stroke-linejoin:round;}
  </style>
 </defs>
 <g id="figure_1">
  <g id="patch_1">
   <path d="M 0 595.275591 
L 841.889764 595.275591 
L 841.889764 0 
L 0 0 
z
" style="fill:#ffffff;"/>
  </g>
  <g id="axes_1">
   <g id="patch_2">
    <path d="M 105.23622 529.795276 
L 757.700787 529.795276 
L 757.700787 71.433071 
L 105.23622 71.433071 
z
" style="fill:#ffffff;"/>
   </g>
   <g id="matplotlib.axis_1">
    <g id="xtick_1">
     <g id="line2d_1">
      <defs>
       <path d="M 0 0 
L 0 3.5 
" id="md2afad49db" style="stroke:#000000;stroke-width:0.8;"/>
      </defs>
      <g>
       <use style="stroke:#000000;stroke-width:0.8;" x="105.23622" xlink:href="#md2afad49db" y="529.795276"/>
      </g>
     </g>
     <g id="text_1">
      <!-- 0 -->
      <defs>
       <path d="M 31.78125 66.40625 
Q 24.171875 66.40625 20.328125 58.90625 
Q 16.5 51.421875 16.5 36.375 
Q 16.5 21.390625 20.328125 13.890625 
Q 24.171875 6.390625 31.78125 6.390625 
Q 39.453125 6.390625 43.28125 13.890625 
Q 47.125 21.390625 47.125 36.375 
Q 47.125 51.421875 43.28125 58.90625 
Q 39.453125 66.40625 31.78125 66.40625 
z
M 31.78125 74.21875 
Q 44.046875 74.21875 50.515625 64.515625 
Q 56.984375 54.828125 56.984375 36.375 
Q 56.984375 17.96875 50.515625 8.265625 
Q 44.046875 -1.421875 31.78125 -1.421875 
Q 19.53125 -1.421875 13.0625 8.265625 
Q 6.59375 17.96875 6.59375 36.375 
Q 6.59375 54.828125 13.0625 64.515625 
Q 19.53125 74.21875 31.78125 74.21875 
z
" id="DejaVuSans-48"/>
      </defs>
      <g transform="translate(107.995595 543.157776)rotate(-90)scale(0.1 -0.1)">
       <use xlink:href="#DejaVuSans-48"/>
      </g>
     </g>
    </g>
    <g id="xtick_2">
     <g id="line2d_2">
      <g>
       <use style="stroke:#000000;stroke-width:0.8;" x="121.227999" xlink:href="#md2afad49db" y="529.795276"/>
      </g>
     </g>
     <g id="text_2">
      <!-- 10 -->
      <defs>
       <path d="M 12.40625 8.296875 
L 28.515625 8.296875 
L 28.515625 63.921875 
L 10.984375 60.40625 
L 10.984375 69.390625 
L 28.421875 72.90625 
L 38.28125 72.90625 
L 38.28125 8.296875 
L 54.390625 8.296875 
L 54.390625 0 
L 12.40625 0 
z
" id="DejaVuSans-49"/>
      </defs>
      <g transform="translate(123.987374 549.520276)rotate(-90)scale(0.1 -0.1)">
       <use xlink:href="#DejaVuSans-49"/>
       <use x="63.623047" xlink:href="#DejaVuSans-48"/>
      </g>
     </g>
    </g>
    <g id="xtick_3">
     <g id="line2d_3">
      <g>
       <use style="stroke:#000000;stroke-width:0.8;" x="137.219778" xlink:href="#md2afad49db" y="529.795276"/>
      </g>
     </g>
     <g id="text_3">
      <!-- 20 -->
      <defs>
       <path d="M 19.1875 8.296875 
L 53.609375 8.296875 
L 53.609375 0 
L 7.328125 0 
L 7.328125 8.296875 
Q 12.9375 14.109375 22.625 23.890625 
Q 32.328125 33.6875 34.8125 36.53125 
Q 39.546875 41.84375 41.421875 45.53125 
Q 43.3125 49.21875 43.3125 52.78125 
Q 43.3125 58.59375 39.234375 62.25 
Q 35.15625 65.921875 28.609375 65.921875 
Q 23.96875 65.921875 18.8125 64.3125 
Q 13.671875 62.703125 7.8125 59.421875 
L 7.8125 69.390625 
Q 13.765625 71.78125 18.9375 73 
Q 24.125 74.21875 28.421875 74.21875 
Q 39.75 74.21875 46.484375 68.546875 
Q 53.21875 62.890625 53.21875 53.421875 
Q 53.21875 48.921875 51.53125 44.890625 
Q 49.859375 40.875 45.40625 35.40625 
Q 44.1875 33.984375 37.640625 27.21875 
Q 31.109375 20.453125 19.1875 8.296875 
z
" id="DejaVuSans-50"/>
      </defs>
      <g transform="translate(139.979153 549.520276)rotate(-90)scale(0.1 -0.1)">
       <use xlink:href="#DejaVuSans-50"/>
       <use x="63.623047" xlink:href="#DejaVuSans-48"/>
      </g>
     </g>
    </g>
    <g id="xtick_4">
     <g id="line2d_4">
      <g>
       <use style="stroke:#000000;stroke-width:0.8;" x="153.211556" xlink:href="#md2afad49db" y="529.795276"/>
      </g>
     </g>
     <g id="text_4">
      <!-- 30 -->
      <defs>
       <path d="M 40.578125 39.3125 
Q 47.65625 37.796875 51.625 33 
Q 55.609375 28.21875 55.609375 21.1875 
Q 55.609375 10.40625 48.1875 4.484375 
Q 40.765625 -1.421875 27.09375 -1.421875 
Q 22.515625 -1.421875 17.65625 -0.515625 
Q 12.796875 0.390625 7.625 2.203125 
L 7.625 11.71875 
Q 11.71875 9.328125 16.59375 8.109375 
Q 21.484375 6.890625 26.8125 6.890625 
Q 36.078125 6.890625 40.9375 10.546875 
Q 45.796875 14.203125 45.796875 21.1875 
Q 45.796875 27.640625 41.28125 31.265625 
Q 36.765625 34.90625 28.71875 34.90625 
L 20.21875 34.90625 
L 20.21875 43.015625 
L 29.109375 43.015625 
Q 36.375 43.015625 40.234375 45.921875 
Q 44.09375 48.828125 44.09375 54.296875 
Q 44.09375 59.90625 40.109375 62.90625 
Q 36.140625 65.921875 28.71875 65.921875 
Q 24.65625 65.921875 20.015625 65.03125 
Q 15.375 64.15625 9.8125 62.3125 
L 9.8125 71.09375 
Q 15.4375 72.65625 20.34375 73.4375 
Q 25.25 74.21875 29.59375 74.21875 
Q 40.828125 74.21875 47.359375 69.109375 
Q 53.90625 64.015625 53.90625 55.328125 
Q 53.90625 49.265625 50.4375 45.09375 
Q 46.96875 40.921875 40.578125 39.3125 
z
" id="DejaVuSans-51"/>
      </defs>
      <g transform="translate(155.970931 549.520276)rotate(-90)scale(0.1 -0.1)">
       <use xlink:href="#DejaVuSans-51"/>
       <use x="63.623047" xlink:href="#DejaVuSans-48"/>
      </g>
     </g>
    </g>
    <g id="xtick_5">
     <g id="line2d_5">
      <g>
       <use style="stroke:#000000;stroke-width:0.8;" x="169.203335" xlink:href="#md2afad49db" y="529.795276"/>
      </g>
     </g>
     <g id="text_5">
      <!-- 40 -->
      <defs>
       <path d="M 37.796875 64.3125 
L 12.890625 25.390625 
L 37.796875 25.390625 
z
M 35.203125 72.90625 
L 47.609375 72.90625 
L 47.609375 25.390625 
L 58.015625 25.390625 
L 58.015625 17.1875 
L 47.609375 17.1875 
L 47.609375 0 
L 37.796875 0 
L 37.796875 17.1875 
L 4.890625 17.1875 
L 4.890625 26.703125 
z
" id="DejaVuSans-52"/>
      </defs>
      <g transform="translate(171.96271 549.520276)rotate(-90)scale(0.1 -0.1)">
       <use xlink:href="#DejaVuSans-52"/>
       <use x="63.623047" xlink:href="#DejaVuSans-48"/>
      </g>
     </g>
    </g>
    <g id="xtick_6">
     <g id="line2d_6">
      <g>
       <use style="stroke:#000000;stroke-width:0.8;" x="185.195113" xlink:href="#md2afad49db" y="529.795276"/>
      </g>
     </g>
     <g id="text_6">
      <!-- 50 -->
      <defs>
       <path d="M 10.796875 72.90625 
L 49.515625 72.90625 
L 49.515625 64.59375 
L 19.828125 64.59375 
L 19.828125 46.734375 
Q 21.96875 47.46875 24.109375 47.828125 
Q 26.265625 48.1875 28.421875 48.1875 
Q 40.625 48.1875 47.75 41.5 
Q 54.890625 34.8125 54.890625 23.390625 
Q 54.890625 11.625 47.5625 5.09375 
Q 40.234375 -1.421875 26.90625 -1.421875 
Q 22.3125 -1.421875 17.546875 -0.640625 
Q 12.796875 0.140625 7.71875 1.703125 
L 7.71875 11.625 
Q 12.109375 9.234375 16.796875 8.0625 
Q 21.484375 6.890625 26.703125 6.890625 
Q 35.15625 6.890625 40.078125 11.328125 
Q 45.015625 15.765625 45.015625 23.390625 
Q 45.015625 31 40.078125 35.4375 
Q 35.15625 39.890625 26.703125 39.890625 
Q 22.75 39.890625 18.8125 39.015625 
Q 14.890625 38.140625 10.796875 36.28125 
z
" id="DejaVuSans-53"/>
      </defs>
      <g transform="translate(187.954488 549.520276)rotate(-90)scale(0.1 -0.1)">
       <use xlink:href="#DejaVuSans-53"/>
       <use x="63.623047" xlink:href="#DejaVuSans-48"/>
      </g>
     </g>
    </g>
    <g id="xtick_7">
     <g id="line2d_7">
      <g>
       <use style="stroke:#000000;stroke-width:0.8;" x="201.186892" xlink:href="#md2afad49db" y="529.795276"/>
      </g>
     </g>
     <g id="text_7">
      <!-- 60 -->
      <defs>
       <path d="M 33.015625 40.375 
Q 26.375 40.375 22.484375 35.828125 
Q 18.609375 31.296875 18.609375 23.390625 
Q 18.609375 15.53125 22.484375 10.953125 
Q 26.375 6.390625 33.015625 6.390625 
Q 39.65625 6.390625 43.53125 10.953125 
Q 47.40625 15.53125 47.40625 23.390625 
Q 47.40625 31.296875 43.53125 35.828125 
Q 39.65625 40.375 33.015625 40.375 
z
M 52.59375 71.296875 
L 52.59375 62.3125 
Q 48.875 64.0625 45.09375 64.984375 
Q 41.3125 65.921875 37.59375 65.921875 
Q 27.828125 65.921875 22.671875 59.328125 
Q 17.53125 52.734375 16.796875 39.40625 
Q 19.671875 43.65625 24.015625 45.921875 
Q 28.375 48.1875 33.59375 48.1875 
Q 44.578125 48.1875 50.953125 41.515625 
Q 57.328125 34.859375 57.328125 23.390625 
Q 57.328125 12.15625 50.6875 5.359375 
Q 44.046875 -1.421875 33.015625 -1.421875 
Q 20.359375 -1.421875 13.671875 8.265625 
Q 6.984375 17.96875 6.984375 36.375 
Q 6.984375 53.65625 15.1875 63.9375 
Q 23.390625 74.21875 37.203125 74.21875 
Q 40.921875 74.21875 44.703125 73.484375 
Q 48.484375 72.75 52.59375 71.296875 
z
" id="DejaVuSans-54"/>
      </defs>
      <g transform="translate(203.946267 549.520276)rotate(-90)scale(0.1 -0.1)">
       <use xlink:href="#DejaVuSans-54"/>
       <use x="63.623047" xlink:href="#DejaVuSans-48"/>
      </g>
     </g>
    </g>
    <g id="xtick_8">
     <g id="line2d_8">
      <g>
       <use style="stroke:#000000;stroke-width:0.8;" x="217.178671" xlink:href="#md2afad49db" y="529.795276"/>
      </g>
     </g>
     <g id="text_8">
      <!-- 70 -->
      <defs>
       <path d="M 8.203125 72.90625 
L 55.078125 72.90625 
L 55.078125 68.703125 
L 28.609375 0 
L 18.3125 0 
L 43.21875 64.59375 
L 8.203125 64.59375 
z
" id="DejaVuSans-55"/>
      </defs>
      <g transform="translate(219.938046 549.520276)rotate(-90)scale(0.1 -0.1)">
       <use xlink:href="#DejaVuSans-55"/>
       <use x="63.623047" xlink:href="#DejaVuSans-48"/>
      </g>
     </g>
    </g>
    <g id="xtick_9">
     <g id="line2d_9">
      <g>
       <use style="stroke:#000000;stroke-width:0.8;" x="233.170449" xlink:href="#md2afad49db" y="529.795276"/>
      </g>
     </g>
     <g id="text_9">
      <!-- 80 -->
      <defs>
       <path d="M 31.78125 34.625 
Q 24.75 34.625 20.71875 30.859375 
Q 16.703125 27.09375 16.703125 20.515625 
Q 16.703125 13.921875 20.71875 10.15625 
Q 24.75 6.390625 31.78125 6.390625 
Q 38.8125 6.390625 42.859375 10.171875 
Q 46.921875 13.96875 46.921875 20.515625 
Q 46.921875 27.09375 42.890625 30.859375 
Q 38.875 34.625 31.78125 34.625 
z
M 21.921875 38.8125 
Q 15.578125 40.375 12.03125 44.71875 
Q 8.5 49.078125 8.5 55.328125 
Q 8.5 64.0625 14.71875 69.140625 
Q 20.953125 74.21875 31.78125 74.21875 
Q 42.671875 74.21875 48.875 69.140625 
Q 55.078125 64.0625 55.078125 55.328125 
Q 55.078125 49.078125 51.53125 44.71875 
Q 48 40.375 41.703125 38.8125 
Q 48.828125 37.15625 52.796875 32.3125 
Q 56.78125 27.484375 56.78125 20.515625 
Q 56.78125 9.90625 50.3125 4.234375 
Q 43.84375 -1.421875 31.78125 -1.421875 
Q 19.734375 -1.421875 13.25 4.234375 
Q 6.78125 9.90625 6.78125 20.515625 
Q 6.78125 27.484375 10.78125 32.3125 
Q 14.796875 37.15625 21.921875 38.8125 
z
M 18.3125 54.390625 
Q 18.3125 48.734375 21.84375 45.5625 
Q 25.390625 42.390625 31.78125 42.390625 
Q 38.140625 42.390625 41.71875 45.5625 
Q 45.3125 48.734375 45.3125 54.390625 
Q 45.3125 60.0625 41.71875 63.234375 
Q 38.140625 66.40625 31.78125 66.40625 
Q 25.390625 66.40625 21.84375 63.234375 
Q 18.3125 60.0625 18.3125 54.390625 
z
" id="DejaVuSans-56"/>
      </defs>
      <g transform="translate(235.929824 549.520276)rotate(-90)scale(0.1 -0.1)">
       <use xlink:href="#DejaVuSans-56"/>
       <use x="63.623047" xlink:href="#DejaVuSans-48"/>
      </g>
     </g>
    </g>
    <g id="xtick_10">
     <g id="line2d_10">
      <g>
       <use style="stroke:#000000;stroke-width:0.8;" x="249.162228" xlink:href="#md2afad49db" y="529.795276"/>
      </g>
     </g>
     <g id="text_10">
      <!-- 90 -->
      <defs>
       <path d="M 10.984375 1.515625 
L 10.984375 10.5 
Q 14.703125 8.734375 18.5 7.8125 
Q 22.3125 6.890625 25.984375 6.890625 
Q 35.75 6.890625 40.890625 13.453125 
Q 46.046875 20.015625 46.78125 33.40625 
Q 43.953125 29.203125 39.59375 26.953125 
Q 35.25 24.703125 29.984375 24.703125 
Q 19.046875 24.703125 12.671875 31.3125 
Q 6.296875 37.9375 6.296875 49.421875 
Q 6.296875 60.640625 12.9375 67.421875 
Q 19.578125 74.21875 30.609375 74.21875 
Q 43.265625 74.21875 49.921875 64.515625 
Q 56.59375 54.828125 56.59375 36.375 
Q 56.59375 19.140625 48.40625 8.859375 
Q 40.234375 -1.421875 26.421875 -1.421875 
Q 22.703125 -1.421875 18.890625 -0.6875 
Q 15.09375 0.046875 10.984375 1.515625 
z
M 30.609375 32.421875 
Q 37.25 32.421875 41.125 36.953125 
Q 45.015625 41.5 45.015625 49.421875 
Q 45.015625 57.28125 41.125 61.84375 
Q 37.25 66.40625 30.609375 66.40625 
Q 23.96875 66.40625 20.09375 61.84375 
Q 16.21875 57.28125 16.21875 49.421875 
Q 16.21875 41.5 20.09375 36.953125 
Q 23.96875 32.421875 30.609375 32.421875 
z
" id="DejaVuSans-57"/>
      </defs>
      <g transform="translate(251.921603 549.520276)rotate(-90)scale(0.1 -0.1)">
       <use xlink:href="#DejaVuSans-57"/>
       <use x="63.623047" xlink:href="#DejaVuSans-48"/>
      </g>
     </g>
    </g>
    <g id="xtick_11">
     <g id="line2d_11">
      <g>
       <use style="stroke:#000000;stroke-width:0.8;" x="265.154006" xlink:href="#md2afad49db" y="529.795276"/>
      </g>
     </g>
     <g id="text_11">
      <!-- 100 -->
      <g transform="translate(267.913381 555.882776)rotate(-90)scale(0.1 -0.1)">
       <use xlink:href="#DejaVuSans-49"/>
       <use x="63.623047" xlink:href="#DejaVuSans-48"/>
       <use x="127.246094" xlink:href="#DejaVuSans-48"/>
      </g>
     </g>
    </g>
    <g id="xtick_12">
     <g id="line2d_12">
      <g>
       <use style="stroke:#000000;stroke-width:0.8;" x="281.145785" xlink:href="#md2afad49db" y="529.795276"/>
      </g>
     </g>
     <g id="text_12">
      <!-- 110 -->
      <g transform="translate(283.90516 555.882776)rotate(-90)scale(0.1 -0.1)">
       <use xlink:href="#DejaVuSans-49"/>
       <use x="63.623047" xlink:href="#DejaVuSans-49"/>
       <use x="127.246094" xlink:href="#DejaVuSans-48"/>
      </g>
     </g>
    </g>
    <g id="xtick_13">
     <g id="line2d_13">
      <g>
       <use style="stroke:#000000;stroke-width:0.8;" x="297.137564" xlink:href="#md2afad49db" y="529.795276"/>
      </g>
     </g>
     <g id="text_13">
      <!-- 120 -->
      <g transform="translate(299.896939 555.882776)rotate(-90)scale(0.1 -0.1)">
       <use xlink:href="#DejaVuSans-49"/>
       <use x="63.623047" xlink:href="#DejaVuSans-50"/>
       <use x="127.246094" xlink:href="#DejaVuSans-48"/>
      </g>
     </g>
    </g>
    <g id="xtick_14">
     <g id="line2d_14">
      <g>
       <use style="stroke:#000000;stroke-width:0.8;" x="313.129342" xlink:href="#md2afad49db" y="529.795276"/>
      </g>
     </g>
     <g id="text_14">
      <!-- 130 -->
      <g transform="translate(315.888717 555.882776)rotate(-90)scale(0.1 -0.1)">
       <use xlink:href="#DejaVuSans-49"/>
       <use x="63.623047" xlink:href="#DejaVuSans-51"/>
       <use x="127.246094" xlink:href="#DejaVuSans-48"/>
      </g>
     </g>
    </g>
    <g id="xtick_15">
     <g id="line2d_15">
      <g>
       <use style="stroke:#000000;stroke-width:0.8;" x="329.121121" xlink:href="#md2afad49db" y="529.795276"/>
      </g>
     </g>
     <g id="text_15">
      <!-- 140 -->
      <g transform="translate(331.880496 555.882776)rotate(-90)scale(0.1 -0.1)">
       <use xlink:href="#DejaVuSans-49"/>
       <use x="63.623047" xlink:href="#DejaVuSans-52"/>
       <use x="127.246094" xlink:href="#DejaVuSans-48"/>
      </g>
     </g>
    </g>
    <g id="xtick_16">
     <g id="line2d_16">
      <g>
       <use style="stroke:#000000;stroke-width:0.8;" x="345.112899" xlink:href="#md2afad49db" y="529.795276"/>
      </g>
     </g>
     <g id="text_16">
      <!-- 150 -->
      <g transform="translate(347.872274 555.882776)rotate(-90)scale(0.1 -0.1)">
       <use xlink:href="#DejaVuSans-49"/>
       <use x="63.623047" xlink:href="#DejaVuSans-53"/>
       <use x="127.246094" xlink:href="#DejaVuSans-48"/>
      </g>
     </g>
    </g>
    <g id="xtick_17">
     <g id="line2d_17">
      <g>
       <use style="stroke:#000000;stroke-width:0.8;" x="361.104678" xlink:href="#md2afad49db" y="529.795276"/>
      </g>
     </g>
     <g id="text_17">
      <!-- 160 -->
      <g transform="translate(363.864053 555.882776)rotate(-90)scale(0.1 -0.1)">
       <use xlink:href="#DejaVuSans-49"/>
       <use x="63.623047" xlink:href="#DejaVuSans-54"/>
       <use x="127.246094" xlink:href="#DejaVuSans-48"/>
      </g>
     </g>
    </g>
    <g id="xtick_18">
     <g id="line2d_18">
      <g>
       <use style="stroke:#000000;stroke-width:0.8;" x="377.096457" xlink:href="#md2afad49db" y="529.795276"/>
      </g>
     </g>
     <g id="text_18">
      <!-- 170 -->
      <g transform="translate(379.855832 555.882776)rotate(-90)scale(0.1 -0.1)">
       <use xlink:href="#DejaVuSans-49"/>
       <use x="63.623047" xlink:href="#DejaVuSans-55"/>
       <use x="127.246094" xlink:href="#DejaVuSans-48"/>
      </g>
     </g>
    </g>
    <g id="xtick_19">
     <g id="line2d_19">
      <g>
       <use style="stroke:#000000;stroke-width:0.8;" x="393.088235" xlink:href="#md2afad49db" y="529.795276"/>
      </g>
     </g>
     <g id="text_19">
      <!-- 180 -->
      <g transform="translate(395.84761 555.882776)rotate(-90)scale(0.1 -0.1)">
       <use xlink:href="#DejaVuSans-49"/>
       <use x="63.623047" xlink:href="#DejaVuSans-56"/>
       <use x="127.246094" xlink:href="#DejaVuSans-48"/>
      </g>
     </g>
    </g>
    <g id="xtick_20">
     <g id="line2d_20">
      <g>
       <use style="stroke:#000000;stroke-width:0.8;" x="409.080014" xlink:href="#md2afad49db" y="529.795276"/>
      </g>
     </g>
     <g id="text_20">
      <!-- 190 -->
      <g transform="translate(411.839389 555.882776)rotate(-90)scale(0.1 -0.1)">
       <use xlink:href="#DejaVuSans-49"/>
       <use x="63.623047" xlink:href="#DejaVuSans-57"/>
       <use x="127.246094" xlink:href="#DejaVuSans-48"/>
      </g>
     </g>
    </g>
    <g id="xtick_21">
     <g id="line2d_21">
      <g>
       <use style="stroke:#000000;stroke-width:0.8;" x="425.071792" xlink:href="#md2afad49db" y="529.795276"/>
      </g>
     </g>
     <g id="text_21">
      <!-- 200 -->
      <g transform="translate(427.831167 555.882776)rotate(-90)scale(0.1 -0.1)">
       <use xlink:href="#DejaVuSans-50"/>
       <use x="63.623047" xlink:href="#DejaVuSans-48"/>
       <use x="127.246094" xlink:href="#DejaVuSans-48"/>
      </g>
     </g>
    </g>
    <g id="xtick_22">
     <g id="line2d_22">
      <g>
       <use style="stroke:#000000;stroke-width:0.8;" x="441.063571" xlink:href="#md2afad49db" y="529.795276"/>
      </g>
     </g>
     <g id="text_22">
      <!-- 210 -->
      <g transform="translate(443.822946 555.882776)rotate(-90)scale(0.1 -0.1)">
       <use xlink:href="#DejaVuSans-50"/>
       <use x="63.623047" xlink:href="#DejaVuSans-49"/>
       <use x="127.246094" xlink:href="#DejaVuSans-48"/>
      </g>
     </g>
    </g>
    <g id="xtick_23">
     <g id="line2d_23">
      <g>
       <use style="stroke:#000000;stroke-width:0.8;" x="457.05535" xlink:href="#md2afad49db" y="529.795276"/>
      </g>
     </g>
     <g id="text_23">
      <!-- 220 -->
      <g transform="translate(459.814725 555.882776)rotate(-90)scale(0.1 -0.1)">
       <use xlink:href="#DejaVuSans-50"/>
       <use x="63.623047" xlink:href="#DejaVuSans-50"/>
       <use x="127.246094" xlink:href="#DejaVuSans-48"/>
      </g>
     </g>
    </g>
    <g id="xtick_24">
     <g id="line2d_24">
      <g>
       <use style="stroke:#000000;stroke-width:0.8;" x="473.047128" xlink:href="#md2afad49db" y="529.795276"/>
      </g>
     </g>
     <g id="text_24">
      <!-- 230 -->
      <g transform="translate(475.806503 555.882776)rotate(-90)scale(0.1 -0.1)">
       <use xlink:href="#DejaVuSans-50"/>
       <use x="63.623047" xlink:href="#DejaVuSans-51"/>
       <use x="127.246094" xlink:href="#DejaVuSans-48"/>
      </g>
     </g>
    </g>
    <g id="xtick_25">
     <g id="line2d_25">
      <g>
       <use style="stroke:#000000;stroke-width:0.8;" x="489.038907" xlink:href="#md2afad49db" y="529.795276"/>
      </g>
     </g>
     <g id="text_25">
      <!-- 240 -->
      <g transform="translate(491.798282 555.882776)rotate(-90)scale(0.1 -0.1)">
       <use xlink:href="#DejaVuSans-50"/>
       <use x="63.623047" xlink:href="#DejaVuSans-52"/>
       <use x="127.246094" xlink:href="#DejaVuSans-48"/>
      </g>
     </g>
    </g>
    <g id="xtick_26">
     <g id="line2d_26">
      <g>
       <use style="stroke:#000000;stroke-width:0.8;" x="505.030686" xlink:href="#md2afad49db" y="529.795276"/>
      </g>
     </g>
     <g id="text_26">
      <!-- 250 -->
      <g transform="translate(507.790061 555.882776)rotate(-90)scale(0.1 -0.1)">
       <use xlink:href="#DejaVuSans-50"/>
       <use x="63.623047" xlink:href="#DejaVuSans-53"/>
       <use x="127.246094" xlink:href="#DejaVuSans-48"/>
      </g>
     </g>
    </g>
    <g id="xtick_27">
     <g id="line2d_27">
      <g>
       <use style="stroke:#000000;stroke-width:0.8;" x="521.022464" xlink:href="#md2afad49db" y="529.795276"/>
      </g>
     </g>
     <g id="text_27">
      <!-- 260 -->
      <g transform="translate(523.781839 555.882776)rotate(-90)scale(0.1 -0.1)">
       <use xlink:href="#DejaVuSans-50"/>
       <use x="63.623047" xlink:href="#DejaVuSans-54"/>
       <use x="127.246094" xlink:href="#DejaVuSans-48"/>
      </g>
     </g>
    </g>
    <g id="xtick_28">
     <g id="line2d_28">
      <g>
       <use style="stroke:#000000;stroke-width:0.8;" x="537.014243" xlink:href="#md2afad49db" y="529.795276"/>
      </g>
     </g>
     <g id="text_28">
      <!-- 270 -->
      <g transform="translate(539.773618 555.882776)rotate(-90)scale(0.1 -0.1)">
       <use xlink:href="#DejaVuSans-50"/>
       <use x="63.623047" xlink:href="#DejaVuSans-55"/>
       <use x="127.246094" xlink:href="#DejaVuSans-48"/>
      </g>
     </g>
    </g>
    <g id="xtick_29">
     <g id="line2d_29">
      <g>
       <use style="stroke:#000000;stroke-width:0.8;" x="553.006021" xlink:href="#md2afad49db" y="529.795276"/>
      </g>
     </g>
     <g id="text_29">
      <!-- 280 -->
      <g transform="translate(555.765396 555.882776)rotate(-90)scale(0.1 -0.1)">
       <use xlink:href="#DejaVuSans-50"/>
       <use x="63.623047" xlink:href="#DejaVuSans-56"/>
       <use x="127.246094" xlink:href="#DejaVuSans-48"/>
      </g>
     </g>
    </g>
    <g id="xtick_30">
     <g id="line2d_30">
      <g>
       <use style="stroke:#000000;stroke-width:0.8;" x="568.9978" xlink:href="#md2afad49db" y="529.795276"/>
      </g>
     </g>
     <g id="text_30">
      <!-- 290 -->
      <g transform="translate(571.757175 555.882776)rotate(-90)scale(0.1 -0.1)">
       <use xlink:href="#DejaVuSans-50"/>
       <use x="63.623047" xlink:href="#DejaVuSans-57"/>
       <use x="127.246094" xlink:href="#DejaVuSans-48"/>
      </g>
     </g>
    </g>
    <g id="xtick_31">
     <g id="line2d_31">
      <g>
       <use style="stroke:#000000;stroke-width:0.8;" x="584.989579" xlink:href="#md2afad49db" y="529.795276"/>
      </g>
     </g>
     <g id="text_31">
      <!-- 300 -->
      <g transform="translate(587.748954 555.882776)rotate(-90)scale(0.1 -0.1)">
       <use xlink:href="#DejaVuSans-51"/>
       <use x="63.623047" xlink:href="#DejaVuSans-48"/>
       <use x="127.246094" xlink:href="#DejaVuSans-48"/>
      </g>
     </g>
    </g>
    <g id="xtick_32">
     <g id="line2d_32">
      <g>
       <use style="stroke:#000000;stroke-width:0.8;" x="600.981357" xlink:href="#md2afad49db" y="529.795276"/>
      </g>
     </g>
     <g id="text_32">
      <!-- 310 -->
      <g transform="translate(603.740732 555.882776)rotate(-90)scale(0.1 -0.1)">
       <use xlink:href="#DejaVuSans-51"/>
       <use x="63.623047" xlink:href="#DejaVuSans-49"/>
       <use x="127.246094" xlink:href="#DejaVuSans-48"/>
      </g>
     </g>
    </g>
    <g id="xtick_33">
     <g id="line2d_33">
      <g>
       <use style="stroke:#000000;stroke-width:0.8;" x="616.973136" xlink:href="#md2afad49db" y="529.795276"/>
      </g>
     </g>
     <g id="text_33">
      <!-- 320 -->
      <g transform="translate(619.732511 555.882776)rotate(-90)scale(0.1 -0.1)">
       <use xlink:href="#DejaVuSans-51"/>
       <use x="63.623047" xlink:href="#DejaVuSans-50"/>
       <use x="127.246094" xlink:href="#DejaVuSans-48"/>
      </g>
     </g>
    </g>
    <g id="xtick_34">
     <g id="line2d_34">
      <g>
       <use style="stroke:#000000;stroke-width:0.8;" x="632.964914" xlink:href="#md2afad49db" y="529.795276"/>
      </g>
     </g>
     <g id="text_34">
      <!-- 330 -->
      <g transform="translate(635.724289 555.882776)rotate(-90)scale(0.1 -0.1)">
       <use xlink:href="#DejaVuSans-51"/>
       <use x="63.623047" xlink:href="#DejaVuSans-51"/>
       <use x="127.246094" xlink:href="#DejaVuSans-48"/>
      </g>
     </g>
    </g>
    <g id="xtick_35">
     <g id="line2d_35">
      <g>
       <use style="stroke:#000000;stroke-width:0.8;" x="648.956693" xlink:href="#md2afad49db" y="529.795276"/>
      </g>
     </g>
     <g id="text_35">
      <!-- 340 -->
      <g transform="translate(651.716068 555.882776)rotate(-90)scale(0.1 -0.1)">
       <use xlink:href="#DejaVuSans-51"/>
       <use x="63.623047" xlink:href="#DejaVuSans-52"/>
       <use x="127.246094" xlink:href="#DejaVuSans-48"/>
      </g>
     </g>
    </g>
    <g id="xtick_36">
     <g id="line2d_36">
      <g>
       <use style="stroke:#000000;stroke-width:0.8;" x="664.948472" xlink:href="#md2afad49db" y="529.795276"/>
      </g>
     </g>
     <g id="text_36">
      <!-- 350 -->
      <g transform="translate(667.707847 555.882776)rotate(-90)scale(0.1 -0.1)">
       <use xlink:href="#DejaVuSans-51"/>
       <use x="63.623047" xlink:href="#DejaVuSans-53"/>
       <use x="127.246094" xlink:href="#DejaVuSans-48"/>
      </g>
     </g>
    </g>
    <g id="xtick_37">
     <g id="line2d_37">
      <g>
       <use style="stroke:#000000;stroke-width:0.8;" x="680.94025" xlink:href="#md2afad49db" y="529.795276"/>
      </g>
     </g>
     <g id="text_37">
      <!-- 360 -->
      <g transform="translate(683.699625 555.882776)rotate(-90)scale(0.1 -0.1)">
       <use xlink:href="#DejaVuSans-51"/>
       <use x="63.623047" xlink:href="#DejaVuSans-54"/>
       <use x="127.246094" xlink:href="#DejaVuSans-48"/>
      </g>
     </g>
    </g>
    <g id="xtick_38">
     <g id="line2d_38">
      <g>
       <use style="stroke:#000000;stroke-width:0.8;" x="696.932029" xlink:href="#md2afad49db" y="529.795276"/>
      </g>
     </g>
     <g id="text_38">
      <!-- 370 -->
      <g transform="translate(699.691404 555.882776)rotate(-90)scale(0.1 -0.1)">
       <use xlink:href="#DejaVuSans-51"/>
       <use x="63.623047" xlink:href="#DejaVuSans-55"/>
       <use x="127.246094" xlink:href="#DejaVuSans-48"/>
      </g>
     </g>
    </g>
    <g id="xtick_39">
     <g id="line2d_39">
      <g>
       <use style="stroke:#000000;stroke-width:0.8;" x="712.923807" xlink:href="#md2afad49db" y="529.795276"/>
      </g>
     </g>
     <g id="text_39">
      <!-- 380 -->
      <g transform="translate(715.683182 555.882776)rotate(-90)scale(0.1 -0.1)">
       <use xlink:href="#DejaVuSans-51"/>
       <use x="63.623047" xlink:href="#DejaVuSans-56"/>
       <use x="127.246094" xlink:href="#DejaVuSans-48"/>
      </g>
     </g>
    </g>
    <g id="xtick_40">
     <g id="line2d_40">
      <g>
       <use style="stroke:#000000;stroke-width:0.8;" x="728.915586" xlink:href="#md2afad49db" y="529.795276"/>
      </g>
     </g>
     <g id="text_40">
      <!-- 390 -->
      <g transform="translate(731.674961 555.882776)rotate(-90)scale(0.1 -0.1)">
       <use xlink:href="#DejaVuSans-51"/>
       <use x="63.623047" xlink:href="#DejaVuSans-57"/>
       <use x="127.246094" xlink:href="#DejaVuSans-48"/>
      </g>
     </g>
    </g>
    <g id="xtick_41">
     <g id="line2d_41">
      <g>
       <use style="stroke:#000000;stroke-width:0.8;" x="744.907365" xlink:href="#md2afad49db" y="529.795276"/>
      </g>
     </g>
     <g id="text_41">
      <!-- 400 -->
      <g transform="translate(747.66674 555.882776)rotate(-90)scale(0.1 -0.1)">
       <use xlink:href="#DejaVuSans-52"/>
       <use x="63.623047" xlink:href="#DejaVuSans-48"/>
       <use x="127.246094" xlink:href="#DejaVuSans-48"/>
      </g>
     </g>
    </g>
    <g id="text_42">
     <!-- aa position -->
     <defs>
      <path d="M 34.28125 27.484375 
Q 23.390625 27.484375 19.1875 25 
Q 14.984375 22.515625 14.984375 16.5 
Q 14.984375 11.71875 18.140625 8.90625 
Q 21.296875 6.109375 26.703125 6.109375 
Q 34.1875 6.109375 38.703125 11.40625 
Q 43.21875 16.703125 43.21875 25.484375 
L 43.21875 27.484375 
z
M 52.203125 31.203125 
L 52.203125 0 
L 43.21875 0 
L 43.21875 8.296875 
Q 40.140625 3.328125 35.546875 0.953125 
Q 30.953125 -1.421875 24.3125 -1.421875 
Q 15.921875 -1.421875 10.953125 3.296875 
Q 6 8.015625 6 15.921875 
Q 6 25.140625 12.171875 29.828125 
Q 18.359375 34.515625 30.609375 34.515625 
L 43.21875 34.515625 
L 43.21875 35.40625 
Q 43.21875 41.609375 39.140625 45 
Q 35.0625 48.390625 27.6875 48.390625 
Q 23 48.390625 18.546875 47.265625 
Q 14.109375 46.140625 10.015625 43.890625 
L 10.015625 52.203125 
Q 14.9375 54.109375 19.578125 55.046875 
Q 24.21875 56 28.609375 56 
Q 40.484375 56 46.34375 49.84375 
Q 52.203125 43.703125 52.203125 31.203125 
z
" id="DejaVuSans-97"/>
      <path id="DejaVuSans-32"/>
      <path d="M 18.109375 8.203125 
L 18.109375 -20.796875 
L 9.078125 -20.796875 
L 9.078125 54.6875 
L 18.109375 54.6875 
L 18.109375 46.390625 
Q 20.953125 51.265625 25.265625 53.625 
Q 29.59375 56 35.59375 56 
Q 45.5625 56 51.78125 48.09375 
Q 58.015625 40.1875 58.015625 27.296875 
Q 58.015625 14.40625 51.78125 6.484375 
Q 45.5625 -1.421875 35.59375 -1.421875 
Q 29.59375 -1.421875 25.265625 0.953125 
Q 20.953125 3.328125 18.109375 8.203125 
z
M 48.6875 27.296875 
Q 48.6875 37.203125 44.609375 42.84375 
Q 40.53125 48.484375 33.40625 48.484375 
Q 26.265625 48.484375 22.1875 42.84375 
Q 18.109375 37.203125 18.109375 27.296875 
Q 18.109375 17.390625 22.1875 11.75 
Q 26.265625 6.109375 33.40625 6.109375 
Q 40.53125 6.109375 44.609375 11.75 
Q 48.6875 17.390625 48.6875 27.296875 
z
" id="DejaVuSans-112"/>
      <path d="M 30.609375 48.390625 
Q 23.390625 48.390625 19.1875 42.75 
Q 14.984375 37.109375 14.984375 27.296875 
Q 14.984375 17.484375 19.15625 11.84375 
Q 23.34375 6.203125 30.609375 6.203125 
Q 37.796875 6.203125 41.984375 11.859375 
Q 46.1875 17.53125 46.1875 27.296875 
Q 46.1875 37.015625 41.984375 42.703125 
Q 37.796875 48.390625 30.609375 48.390625 
z
M 30.609375 56 
Q 42.328125 56 49.015625 48.375 
Q 55.71875 40.765625 55.71875 27.296875 
Q 55.71875 13.875 49.015625 6.21875 
Q 42.328125 -1.421875 30.609375 -1.421875 
Q 18.84375 -1.421875 12.171875 6.21875 
Q 5.515625 13.875 5.515625 27.296875 
Q 5.515625 40.765625 12.171875 48.375 
Q 18.84375 56 30.609375 56 
z
" id="DejaVuSans-111"/>
      <path d="M 44.28125 53.078125 
L 44.28125 44.578125 
Q 40.484375 46.53125 36.375 47.5 
Q 32.28125 48.484375 27.875 48.484375 
Q 21.1875 48.484375 17.84375 46.4375 
Q 14.5 44.390625 14.5 40.28125 
Q 14.5 37.15625 16.890625 35.375 
Q 19.28125 33.59375 26.515625 31.984375 
L 29.59375 31.296875 
Q 39.15625 29.25 43.1875 25.515625 
Q 47.21875 21.78125 47.21875 15.09375 
Q 47.21875 7.46875 41.1875 3.015625 
Q 35.15625 -1.421875 24.609375 -1.421875 
Q 20.21875 -1.421875 15.453125 -0.5625 
Q 10.6875 0.296875 5.421875 2 
L 5.421875 11.28125 
Q 10.40625 8.6875 15.234375 7.390625 
Q 20.0625 6.109375 24.8125 6.109375 
Q 31.15625 6.109375 34.5625 8.28125 
Q 37.984375 10.453125 37.984375 14.40625 
Q 37.984375 18.0625 35.515625 20.015625 
Q 33.0625 21.96875 24.703125 23.78125 
L 21.578125 24.515625 
Q 13.234375 26.265625 9.515625 29.90625 
Q 5.8125 33.546875 5.8125 39.890625 
Q 5.8125 47.609375 11.28125 51.796875 
Q 16.75 56 26.8125 56 
Q 31.78125 56 36.171875 55.265625 
Q 40.578125 54.546875 44.28125 53.078125 
z
" id="DejaVuSans-115"/>
      <path d="M 9.421875 54.6875 
L 18.40625 54.6875 
L 18.40625 0 
L 9.421875 0 
z
M 9.421875 75.984375 
L 18.40625 75.984375 
L 18.40625 64.59375 
L 9.421875 64.59375 
z
" id="DejaVuSans-105"/>
      <path d="M 18.3125 70.21875 
L 18.3125 54.6875 
L 36.8125 54.6875 
L 36.8125 47.703125 
L 18.3125 47.703125 
L 18.3125 18.015625 
Q 18.3125 11.328125 20.140625 9.421875 
Q 21.96875 7.515625 27.59375 7.515625 
L 36.8125 7.515625 
L 36.8125 0 
L 27.59375 0 
Q 17.1875 0 13.234375 3.875 
Q 9.28125 7.765625 9.28125 18.015625 
L 9.28125 47.703125 
L 2.6875 47.703125 
L 2.6875 54.6875 
L 9.28125 54.6875 
L 9.28125 70.21875 
z
" id="DejaVuSans-116"/>
      <path d="M 54.890625 33.015625 
L 54.890625 0 
L 45.90625 0 
L 45.90625 32.71875 
Q 45.90625 40.484375 42.875 44.328125 
Q 39.84375 48.1875 33.796875 48.1875 
Q 26.515625 48.1875 22.3125 43.546875 
Q 18.109375 38.921875 18.109375 30.90625 
L 18.109375 0 
L 9.078125 0 
L 9.078125 54.6875 
L 18.109375 54.6875 
L 18.109375 46.1875 
Q 21.34375 51.125 25.703125 53.5625 
Q 30.078125 56 35.796875 56 
Q 45.21875 56 50.046875 50.171875 
Q 54.890625 44.34375 54.890625 33.015625 
z
" id="DejaVuSans-110"/>
     </defs>
     <g transform="translate(403.946629 567.481213)scale(0.1 -0.1)">
      <use xlink:href="#DejaVuSans-97"/>
      <use x="61.279297" xlink:href="#DejaVuSans-97"/>
      <use x="122.558594" xlink:href="#DejaVuSans-32"/>
      <use x="154.345703" xlink:href="#DejaVuSans-112"/>
      <use x="217.822266" xlink:href="#DejaVuSans-111"/>
      <use x="279.003906" xlink:href="#DejaVuSans-115"/>
      <use x="331.103516" xlink:href="#DejaVuSans-105"/>
      <use x="358.886719" xlink:href="#DejaVuSans-116"/>
      <use x="398.095703" xlink:href="#DejaVuSans-105"/>
      <use x="425.878906" xlink:href="#DejaVuSans-111"/>
      <use x="487.060547" xlink:href="#DejaVuSans-110"/>
     </g>
    </g>
   </g>
   <g id="matplotlib.axis_2">
    <g id="ytick_1">
     <g id="line2d_42">
      <defs>
       <path d="M 0 0 
L -3.5 0 
" id="m88f45aa58d" style="stroke:#000000;stroke-width:0.8;"/>
      </defs>
      <g>
       <use style="stroke:#000000;stroke-width:0.8;" x="105.23622" xlink:href="#m88f45aa58d" y="529.795276"/>
      </g>
     </g>
     <g id="text_43">
      <!-- 0.04 -->
      <defs>
       <path d="M 10.6875 12.40625 
L 21 12.40625 
L 21 0 
L 10.6875 0 
z
" id="DejaVuSans-46"/>
      </defs>
      <g transform="translate(75.970595 533.594494)scale(0.1 -0.1)">
       <use xlink:href="#DejaVuSans-48"/>
       <use x="63.623047" xlink:href="#DejaVuSans-46"/>
       <use x="95.410156" xlink:href="#DejaVuSans-48"/>
       <use x="159.033203" xlink:href="#DejaVuSans-52"/>
      </g>
     </g>
    </g>
    <g id="ytick_2">
     <g id="line2d_43">
      <g>
       <use style="stroke:#000000;stroke-width:0.8;" x="105.23622" xlink:href="#m88f45aa58d" y="446.456693"/>
      </g>
     </g>
     <g id="text_44">
      <!-- 0.06 -->
      <g transform="translate(75.970595 450.255912)scale(0.1 -0.1)">
       <use xlink:href="#DejaVuSans-48"/>
       <use x="63.623047" xlink:href="#DejaVuSans-46"/>
       <use x="95.410156" xlink:href="#DejaVuSans-48"/>
       <use x="159.033203" xlink:href="#DejaVuSans-54"/>
      </g>
     </g>
    </g>
    <g id="ytick_3">
     <g id="line2d_44">
      <g>
       <use style="stroke:#000000;stroke-width:0.8;" x="105.23622" xlink:href="#m88f45aa58d" y="363.11811"/>
      </g>
     </g>
     <g id="text_45">
      <!-- 0.08 -->
      <g transform="translate(75.970595 366.917329)scale(0.1 -0.1)">
       <use xlink:href="#DejaVuSans-48"/>
       <use x="63.623047" xlink:href="#DejaVuSans-46"/>
       <use x="95.410156" xlink:href="#DejaVuSans-48"/>
       <use x="159.033203" xlink:href="#DejaVuSans-56"/>
      </g>
     </g>
    </g>
    <g id="ytick_4">
     <g id="line2d_45">
      <g>
       <use style="stroke:#000000;stroke-width:0.8;" x="105.23622" xlink:href="#m88f45aa58d" y="279.779528"/>
      </g>
     </g>
     <g id="text_46">
      <!-- 0.10 -->
      <g transform="translate(75.970595 283.578746)scale(0.1 -0.1)">
       <use xlink:href="#DejaVuSans-48"/>
       <use x="63.623047" xlink:href="#DejaVuSans-46"/>
       <use x="95.410156" xlink:href="#DejaVuSans-49"/>
       <use x="159.033203" xlink:href="#DejaVuSans-48"/>
      </g>
     </g>
    </g>
    <g id="ytick_5">
     <g id="line2d_46">
      <g>
       <use style="stroke:#000000;stroke-width:0.8;" x="105.23622" xlink:href="#m88f45aa58d" y="196.440945"/>
      </g>
     </g>
     <g id="text_47">
      <!-- 0.12 -->
      <g transform="translate(75.970595 200.240164)scale(0.1 -0.1)">
       <use xlink:href="#DejaVuSans-48"/>
       <use x="63.623047" xlink:href="#DejaVuSans-46"/>
       <use x="95.410156" xlink:href="#DejaVuSans-49"/>
       <use x="159.033203" xlink:href="#DejaVuSans-50"/>
      </g>
     </g>
    </g>
    <g id="ytick_6">
     <g id="line2d_47">
      <g>
       <use style="stroke:#000000;stroke-width:0.8;" x="105.23622" xlink:href="#m88f45aa58d" y="113.102362"/>
      </g>
     </g>
     <g id="text_48">
      <!-- 0.14 -->
      <g transform="translate(75.970595 116.901581)scale(0.1 -0.1)">
       <use xlink:href="#DejaVuSans-48"/>
       <use x="63.623047" xlink:href="#DejaVuSans-46"/>
       <use x="95.410156" xlink:href="#DejaVuSans-49"/>
       <use x="159.033203" xlink:href="#DejaVuSans-52"/>
      </g>
     </g>
    </g>
    <g id="text_49">
     <!-- amino acid diversity -->
     <defs>
      <path d="M 52 44.1875 
Q 55.375 50.25 60.0625 53.125 
Q 64.75 56 71.09375 56 
Q 79.640625 56 84.28125 50.015625 
Q 88.921875 44.046875 88.921875 33.015625 
L 88.921875 0 
L 79.890625 0 
L 79.890625 32.71875 
Q 79.890625 40.578125 77.09375 44.375 
Q 74.3125 48.1875 68.609375 48.1875 
Q 61.625 48.1875 57.5625 43.546875 
Q 53.515625 38.921875 53.515625 30.90625 
L 53.515625 0 
L 44.484375 0 
L 44.484375 32.71875 
Q 44.484375 40.625 41.703125 44.40625 
Q 38.921875 48.1875 33.109375 48.1875 
Q 26.21875 48.1875 22.15625 43.53125 
Q 18.109375 38.875 18.109375 30.90625 
L 18.109375 0 
L 9.078125 0 
L 9.078125 54.6875 
L 18.109375 54.6875 
L 18.109375 46.1875 
Q 21.1875 51.21875 25.484375 53.609375 
Q 29.78125 56 35.6875 56 
Q 41.65625 56 45.828125 52.96875 
Q 50 49.953125 52 44.1875 
z
" id="DejaVuSans-109"/>
      <path d="M 48.78125 52.59375 
L 48.78125 44.1875 
Q 44.96875 46.296875 41.140625 47.34375 
Q 37.3125 48.390625 33.40625 48.390625 
Q 24.65625 48.390625 19.8125 42.84375 
Q 14.984375 37.3125 14.984375 27.296875 
Q 14.984375 17.28125 19.8125 11.734375 
Q 24.65625 6.203125 33.40625 6.203125 
Q 37.3125 6.203125 41.140625 7.25 
Q 44.96875 8.296875 48.78125 10.40625 
L 48.78125 2.09375 
Q 45.015625 0.34375 40.984375 -0.53125 
Q 36.96875 -1.421875 32.421875 -1.421875 
Q 20.0625 -1.421875 12.78125 6.34375 
Q 5.515625 14.109375 5.515625 27.296875 
Q 5.515625 40.671875 12.859375 48.328125 
Q 20.21875 56 33.015625 56 
Q 37.15625 56 41.109375 55.140625 
Q 45.0625 54.296875 48.78125 52.59375 
z
" id="DejaVuSans-99"/>
      <path d="M 45.40625 46.390625 
L 45.40625 75.984375 
L 54.390625 75.984375 
L 54.390625 0 
L 45.40625 0 
L 45.40625 8.203125 
Q 42.578125 3.328125 38.25 0.953125 
Q 33.9375 -1.421875 27.875 -1.421875 
Q 17.96875 -1.421875 11.734375 6.484375 
Q 5.515625 14.40625 5.515625 27.296875 
Q 5.515625 40.1875 11.734375 48.09375 
Q 17.96875 56 27.875 56 
Q 33.9375 56 38.25 53.625 
Q 42.578125 51.265625 45.40625 46.390625 
z
M 14.796875 27.296875 
Q 14.796875 17.390625 18.875 11.75 
Q 22.953125 6.109375 30.078125 6.109375 
Q 37.203125 6.109375 41.296875 11.75 
Q 45.40625 17.390625 45.40625 27.296875 
Q 45.40625 37.203125 41.296875 42.84375 
Q 37.203125 48.484375 30.078125 48.484375 
Q 22.953125 48.484375 18.875 42.84375 
Q 14.796875 37.203125 14.796875 27.296875 
z
" id="DejaVuSans-100"/>
      <path d="M 2.984375 54.6875 
L 12.5 54.6875 
L 29.59375 8.796875 
L 46.6875 54.6875 
L 56.203125 54.6875 
L 35.6875 0 
L 23.484375 0 
z
" id="DejaVuSans-118"/>
      <path d="M 56.203125 29.59375 
L 56.203125 25.203125 
L 14.890625 25.203125 
Q 15.484375 15.921875 20.484375 11.0625 
Q 25.484375 6.203125 34.421875 6.203125 
Q 39.59375 6.203125 44.453125 7.46875 
Q 49.3125 8.734375 54.109375 11.28125 
L 54.109375 2.78125 
Q 49.265625 0.734375 44.1875 -0.34375 
Q 39.109375 -1.421875 33.890625 -1.421875 
Q 20.796875 -1.421875 13.15625 6.1875 
Q 5.515625 13.8125 5.515625 26.8125 
Q 5.515625 40.234375 12.765625 48.109375 
Q 20.015625 56 32.328125 56 
Q 43.359375 56 49.78125 48.890625 
Q 56.203125 41.796875 56.203125 29.59375 
z
M 47.21875 32.234375 
Q 47.125 39.59375 43.09375 43.984375 
Q 39.0625 48.390625 32.421875 48.390625 
Q 24.90625 48.390625 20.390625 44.140625 
Q 15.875 39.890625 15.1875 32.171875 
z
" id="DejaVuSans-101"/>
      <path d="M 41.109375 46.296875 
Q 39.59375 47.171875 37.8125 47.578125 
Q 36.03125 48 33.890625 48 
Q 26.265625 48 22.1875 43.046875 
Q 18.109375 38.09375 18.109375 28.8125 
L 18.109375 0 
L 9.078125 0 
L 9.078125 54.6875 
L 18.109375 54.6875 
L 18.109375 46.1875 
Q 20.953125 51.171875 25.484375 53.578125 
Q 30.03125 56 36.53125 56 
Q 37.453125 56 38.578125 55.875 
Q 39.703125 55.765625 41.0625 55.515625 
z
" id="DejaVuSans-114"/>
      <path d="M 32.171875 -5.078125 
Q 28.375 -14.84375 24.75 -17.8125 
Q 21.140625 -20.796875 15.09375 -20.796875 
L 7.90625 -20.796875 
L 7.90625 -13.28125 
L 13.1875 -13.28125 
Q 16.890625 -13.28125 18.9375 -11.515625 
Q 21 -9.765625 23.484375 -3.21875 
L 25.09375 0.875 
L 2.984375 54.6875 
L 12.5 54.6875 
L 29.59375 11.921875 
L 46.6875 54.6875 
L 56.203125 54.6875 
z
" id="DejaVuSans-121"/>
     </defs>
     <g transform="translate(69.890908 351.288392)rotate(-90)scale(0.1 -0.1)">
      <use xlink:href="#DejaVuSans-97"/>
      <use x="61.279297" xlink:href="#DejaVuSans-109"/>
      <use x="158.691406" xlink:href="#DejaVuSans-105"/>
      <use x="186.474609" xlink:href="#DejaVuSans-110"/>
      <use x="249.853516" xlink:href="#DejaVuSans-111"/>
      <use x="311.035156" xlink:href="#DejaVuSans-32"/>
      <use x="342.822266" xlink:href="#DejaVuSans-97"/>
      <use x="404.101562" xlink:href="#DejaVuSans-99"/>
      <use x="459.082031" xlink:href="#DejaVuSans-105"/>
      <use x="486.865234" xlink:href="#DejaVuSans-100"/>
      <use x="550.341797" xlink:href="#DejaVuSans-32"/>
      <use x="582.128906" xlink:href="#DejaVuSans-100"/>
      <use x="645.605469" xlink:href="#DejaVuSans-105"/>
      <use x="673.388672" xlink:href="#DejaVuSans-118"/>
      <use x="732.568359" xlink:href="#DejaVuSans-101"/>
      <use x="794.091797" xlink:href="#DejaVuSans-114"/>
      <use x="835.205078" xlink:href="#DejaVuSans-115"/>
      <use x="887.304688" xlink:href="#DejaVuSans-105"/>
      <use x="915.087891" xlink:href="#DejaVuSans-116"/>
      <use x="954.296875" xlink:href="#DejaVuSans-121"/>
     </g>
    </g>
   </g>
   <g id="line2d_48">
    <path clip-path="url(#p2673842ea9)" d="M 242.765516 397.470632 
L 244.364694 368.433204 
L 245.963872 377.562252 
L 247.56305 386.086211 
L 249.162228 391.061625 
L 250.761406 398.194 
L 252.360584 401.006896 
L 253.959761 406.146121 
L 255.558939 411.251739 
L 257.158117 415.31079 
L 258.757295 419.447613 
L 260.356473 420.964982 
L 261.955651 423.080244 
L 263.554829 424.23869 
L 265.154006 427.072106 
L 266.753184 429.869671 
L 268.352362 437.085133 
L 269.95154 437.085133 
L 271.550718 437.278921 
L 273.149896 441.655321 
L 274.749074 452.940309 
L 276.348252 473.939724 
L 277.947429 473.380595 
L 279.546607 473.864271 
L 281.145785 475.979533 
L 282.744963 475.979533 
L 284.344141 478.721878 
L 285.943319 478.721878 
L 287.542497 478.721878 
L 289.141674 479.205554 
L 290.740852 479.205554 
L 292.34003 479.205554 
L 293.939208 478.721878 
L 295.538386 480.26923 
L 297.137564 480.752907 
L 298.736742 480.752907 
L 300.335919 478.868271 
L 301.935097 478.384595 
L 303.534275 488.472753 
L 305.133453 488.472753 
L 306.732631 489.476026 
L 308.331809 489.476026 
L 309.930987 491.03843 
L 311.530164 491.03843 
L 313.129342 490.554753 
L 314.72852 490.071077 
L 316.327698 489.587401 
L 317.926876 490.071077 
L 319.526054 490.071077 
L 321.125232 487.437744 
L 322.724409 487.437744 
L 324.323587 487.437744 
L 325.922765 487.92142 
L 327.521943 487.92142 
L 329.121121 487.92142 
L 330.720299 487.92142 
L 332.319477 485.375509 
L 333.918654 485.859186 
L 335.517832 486.342862 
L 337.11701 486.826538 
L 338.716188 486.826538 
L 340.315366 486.826538 
L 341.914544 486.826538 
L 343.513722 484.065839 
L 345.112899 483.546242 
L 346.712077 472.966643 
L 348.311255 473.450319 
L 349.910433 472.460667 
L 351.509611 472.460667 
L 353.108789 475.094 
L 354.707967 474.610324 
L 356.307145 474.126648 
L 357.906322 473.642972 
L 359.5055 473.642972 
L 361.104678 473.159296 
L 362.703856 472.169644 
L 364.303034 477.758636 
L 365.902212 477.27496 
L 367.50139 475.727607 
L 369.100567 468.885359 
L 370.699745 468.885359 
L 372.298923 468.885359 
L 373.898101 468.401683 
L 375.497279 470.678705 
L 377.096457 471.198303 
L 378.695635 481.777902 
L 380.294812 481.777902 
L 381.89399 482.767554 
L 383.493168 482.283878 
L 385.092346 481.800201 
L 386.691524 482.283878 
L 388.290702 473.414472 
L 389.88988 471.782886 
L 391.489057 471.782886 
L 393.088235 472.266562 
L 394.687413 473.256214 
L 396.286591 474.803567 
L 397.885769 475.287243 
L 399.484947 476.834595 
L 401.084125 483.193167 
L 402.683302 482.203515 
L 404.28248 481.719839 
L 405.881658 476.554399 
L 407.480836 475.520706 
L 409.080014 472.786677 
L 410.679192 470.509655 
L 412.27837 470.509655 
L 413.877547 469.520003 
L 415.476725 470.003679 
L 417.075903 470.003679 
L 418.675081 470.003679 
L 420.274259 479.356761 
L 421.873437 481.472023 
L 423.472615 480.599642 
L 425.071792 479.630331 
L 426.67097 478.546983 
L 428.270148 477.328217 
L 429.869326 475.946949 
L 431.468504 474.368356 
L 433.067682 473.29102 
L 434.66686 472.877422 
L 436.266038 471.468667 
" style="fill:none;stroke:#1f77b4;stroke-linecap:square;"/>
   </g>
   <g id="line2d_49">
    <path clip-path="url(#p2673842ea9)" d="M 242.765516 364.2073 
L 244.364694 339.451308 
L 247.56305 360.274553 
L 249.162228 365.817501 
L 250.761406 374.057943 
L 252.360584 377.47392 
L 253.959761 382.339023 
L 255.558939 388.288196 
L 258.757295 397.03731 
L 260.356473 398.867291 
L 261.955651 402.001684 
L 263.554829 403.215835 
L 266.753184 414.567517 
L 268.352362 422.609995 
L 271.550718 423.566041 
L 273.149896 431.290465 
L 274.749074 442.341637 
L 276.348252 462.64943 
L 277.947429 462.103014 
L 279.546607 462.103014 
L 281.145785 464.680429 
L 282.744963 464.680429 
L 284.344141 468.147112 
L 285.943319 469.149633 
L 287.542497 469.580788 
L 289.141674 470.927427 
L 290.740852 471.807578 
L 292.34003 471.807578 
L 293.939208 471.358583 
L 295.538386 475.041334 
L 297.137564 474.574847 
L 298.736742 474.574847 
L 300.335919 473.464919 
L 301.935097 473.033764 
L 303.534275 483.454868 
L 305.133453 483.454868 
L 306.732631 485.335473 
L 308.331809 485.335473 
L 309.930987 487.775219 
L 311.530164 488.206374 
L 313.129342 487.757378 
L 314.72852 487.757378 
L 316.327698 486.387519 
L 317.926876 487.278327 
L 319.526054 487.278327 
L 321.125232 482.828398 
L 324.323587 482.828398 
L 325.922765 483.277394 
L 327.521943 482.397243 
L 329.121121 483.743882 
L 330.720299 483.743882 
L 332.319477 479.131672 
L 333.918654 479.562827 
L 335.517832 479.562827 
L 337.11701 480.442978 
L 338.716188 480.011823 
L 341.914544 480.011823 
L 343.513722 475.802804 
L 345.112899 474.22925 
L 346.712077 461.291481 
L 348.311255 462.661341 
L 349.910433 461.314702 
L 351.509611 461.314702 
L 353.108789 465.764631 
L 354.707967 464.417992 
L 357.906322 463.527183 
L 359.5055 463.976179 
L 362.703856 462.215877 
L 364.303034 469.053256 
L 365.902212 467.67175 
L 367.50139 465.6492 
L 369.100567 457.910458 
L 370.699745 458.341613 
L 372.298923 457.910458 
L 373.898101 457.019649 
L 375.497279 459.847162 
L 377.096457 460.919361 
L 378.695635 473.85713 
L 380.294812 473.85713 
L 381.89399 475.203769 
L 385.092346 472.48727 
L 386.691524 473.833909 
L 388.290702 462.026503 
L 389.88988 459.368343 
L 391.489057 459.799498 
L 394.687413 461.5598 
L 396.286591 463.45313 
L 397.885769 464.40348 
L 399.484947 466.857186 
L 401.084125 474.164773 
L 402.683302 471.247097 
L 404.28248 469.848272 
L 405.881658 465.193818 
L 407.480836 462.959794 
L 410.679192 455.307325 
L 413.877547 455.307325 
L 415.476725 453.210501 
L 417.075903 454.55714 
L 418.675081 450.528009 
L 420.274259 462.766571 
L 421.873437 465.884385 
L 426.67097 464.590919 
L 428.270148 464.590919 
L 429.869326 465.022074 
L 431.468504 465.022074 
L 433.067682 465.453229 
L 434.66686 468.370905 
L 436.266038 469.76973 
L 437.865215 474.434842 
L 439.464393 478.050372 
L 441.063571 482.353071 
L 442.662749 486.204196 
L 445.861105 486.204196 
L 447.460283 489.670879 
L 449.05946 488.78007 
L 450.658638 492.809201 
L 453.856994 492.809201 
L 458.654528 494.102667 
L 460.253705 493.671512 
L 461.852883 491.803604 
L 463.452061 491.803604 
L 465.051239 490.912795 
L 466.650417 489.531289 
L 468.249595 489.071635 
L 469.848773 489.951787 
L 471.44795 489.951787 
L 473.047128 488.96403 
L 474.646306 489.395185 
L 479.44384 489.395185 
L 481.043018 490.285994 
L 485.840551 490.285994 
L 487.439729 489.854839 
L 489.038907 489.854839 
L 492.237263 488.974687 
L 493.83644 488.430674 
L 495.435618 487.550523 
L 497.034796 487.56118 
L 500.233152 488.474718 
L 503.431508 487.348538 
L 505.030686 489.014754 
L 508.229041 487.724398 
L 509.828219 486.930333 
L 511.427397 486.003924 
L 513.026575 484.909076 
L 513.026575 484.909076 
" style="fill:none;stroke:#ff7f0e;stroke-dasharray:4,1.5;stroke-dashoffset:0;"/>
   </g>
   <g id="line2d_50">
    <path clip-path="url(#p2673842ea9)" d="M 242.765516 367.346928 
L 244.364694 347.018517 
L 245.963872 358.119563 
L 247.56305 368.219915 
L 249.162228 373.195337 
L 250.761406 381.518797 
L 252.360584 383.653702 
L 255.558939 393.864084 
L 257.158117 397.929893 
L 258.757295 401.589122 
L 263.554829 407.228444 
L 265.154006 411.285381 
L 266.753184 417.904546 
L 268.352362 423.293916 
L 269.95154 424.675422 
L 271.550718 427.036077 
L 273.149896 436.734954 
L 274.749074 447.738566 
L 276.348252 465.454208 
L 277.947429 464.451687 
L 279.546607 464.451687 
L 281.145785 467.029103 
L 282.744963 466.148951 
L 284.344141 470.26745 
L 285.943319 470.746501 
L 287.542497 471.626652 
L 290.740852 474.31993 
L 292.34003 474.31993 
L 293.939208 473.404446 
L 295.538386 475.858152 
L 297.137564 474.908322 
L 298.736742 474.908322 
L 300.335919 473.788422 
L 301.935097 473.788422 
L 303.534275 483.313536 
L 305.133453 482.86454 
L 306.732631 484.745145 
L 308.331809 484.745145 
L 309.930987 486.638474 
L 311.530164 487.06963 
L 313.129342 486.620634 
L 314.72852 487.06963 
L 316.327698 485.201722 
L 317.926876 486.09253 
L 319.526054 486.09253 
L 321.125232 481.642601 
L 324.323587 481.642601 
L 325.922765 482.98924 
L 327.521943 482.558085 
L 329.121121 484.388065 
L 330.720299 484.388065 
L 332.319477 480.248223 
L 333.918654 479.817067 
L 335.517832 478.936916 
L 337.11701 479.817067 
L 338.716188 478.936916 
L 341.914544 478.936916 
L 343.513722 474.727897 
L 345.112899 473.154343 
L 346.712077 461.391659 
L 348.311255 463.259567 
L 349.910433 461.912928 
L 351.509611 461.912928 
L 353.108789 466.362857 
L 354.707967 465.016218 
L 356.307145 465.016218 
L 357.906322 464.136067 
L 361.104678 464.136067 
L 362.703856 463.255916 
L 364.303034 470.732981 
L 365.902212 469.794277 
L 367.50139 468.234682 
L 369.100567 460.29444 
L 370.699745 461.174591 
L 373.898101 459.414289 
L 375.497279 462.253449 
L 377.096457 463.337294 
L 378.695635 475.531133 
L 380.294812 475.531133 
L 381.89399 476.877772 
L 385.092346 474.161274 
L 386.691524 475.507912 
L 388.290702 464.889282 
L 389.88988 462.170605 
L 391.489057 462.60176 
L 393.088235 462.60176 
L 394.687413 463.481911 
L 396.286591 464.863417 
L 397.885769 463.807459 
L 399.484947 464.900566 
L 401.084125 470.9729 
L 402.683302 467.407352 
L 404.28248 466.940864 
L 405.881658 459.554671 
L 407.480836 455.157843 
L 410.679192 442.248023 
L 413.877547 439.554745 
L 415.476725 440.924605 
L 417.075903 440.901384 
L 418.675081 435.312337 
L 420.274259 442.36542 
L 421.873437 445.964248 
L 428.270148 445.964248 
L 429.869326 447.958911 
L 431.468504 449.30555 
L 433.067682 451.173458 
L 434.66686 454.739006 
L 436.266038 455.654489 
L 437.865215 463.920834 
L 439.464393 469.256366 
L 441.063571 474.129998 
L 442.662749 480.527475 
L 444.261927 480.504254 
L 445.861105 477.531696 
L 447.460283 476.651545 
L 449.05946 470.282662 
L 450.658638 473.978379 
L 452.257816 475.663322 
L 453.856994 467.54667 
L 455.456172 464.568541 
L 457.05535 464.568541 
L 458.654528 461.101857 
L 460.253705 461.101857 
L 461.852883 460.652861 
L 466.650417 458.00175 
L 468.249595 458.432906 
L 469.848773 458.432906 
L 471.44795 458.864061 
L 473.047128 461.872632 
L 474.646306 461.872632 
L 476.245484 462.811336 
L 477.844662 466.250382 
L 479.44384 467.130533 
L 481.043018 474.43812 
L 482.642195 475.900294 
L 484.241373 477.780899 
L 485.840551 485.897551 
L 487.439729 488.875681 
L 489.038907 487.984872 
L 490.638085 491.451556 
L 493.83644 491.451556 
L 498.633974 494.102667 
L 500.233152 494.102667 
L 501.83233 492.222062 
L 503.431508 492.222062 
L 505.030686 491.790907 
L 506.629863 490.421047 
L 508.229041 489.972051 
L 509.828219 490.852202 
L 511.427397 490.852202 
L 513.026575 489.402753 
L 514.625753 489.833908 
L 519.423286 489.833908 
L 521.022464 490.724717 
L 524.22082 490.724717 
L 525.819998 491.173713 
L 527.419176 490.742557 
L 529.018353 490.742557 
L 530.617531 489.862406 
L 532.216709 489.431251 
L 533.815887 490.421047 
L 535.415065 489.989891 
L 537.014243 489.989891 
L 538.613421 490.928596 
L 540.212598 491.480405 
L 543.410954 490.707836 
L 545.010132 492.599879 
L 548.208488 491.821684 
L 551.406843 490.784091 
L 553.006021 490.123804 
L 553.006021 490.123804 
" style="fill:none;stroke:#2ca02c;stroke-dasharray:1,1;stroke-dashoffset:0;"/>
   </g>
   <g id="line2d_51">
    <path clip-path="url(#p2673842ea9)" d="M 242.765516 434.490331 
L 244.364694 429.794175 
L 245.963872 432.952982 
L 247.56305 437.960233 
L 249.162228 437.398317 
L 250.761406 441.441579 
L 252.360584 443.082721 
L 253.959761 444.530788 
L 255.558939 447.503925 
L 257.158117 450.164099 
L 258.757295 451.040888 
L 260.356473 452.558257 
L 261.955651 455.955948 
L 263.554829 455.955948 
L 265.154006 460.199311 
L 266.753184 465.960042 
L 268.352362 468.074162 
L 269.95154 468.074162 
L 271.550718 466.373825 
L 273.149896 467.891194 
L 274.749074 469.771517 
L 276.348252 475.532248 
L 279.546607 475.532248 
L 281.145785 478.92994 
L 282.744963 477.412571 
L 284.344141 478.92994 
L 289.141674 478.92994 
L 290.740852 480.447309 
L 293.939208 480.447309 
L 295.538386 482.327632 
L 301.935097 482.327632 
L 303.534275 485.545337 
L 305.133453 484.027968 
L 306.732631 485.545337 
L 308.331809 485.545337 
L 309.930987 487.062707 
L 311.530164 487.062707 
L 313.129342 485.545337 
L 314.72852 487.062707 
L 316.327698 485.545337 
L 317.926876 487.062707 
L 319.526054 487.062707 
L 321.125232 485.545337 
L 325.922765 485.545337 
L 329.121121 488.580076 
L 330.720299 488.580076 
L 332.319477 486.465956 
L 333.918654 484.948587 
L 335.517832 484.948587 
L 337.11701 486.465956 
L 338.716188 484.948587 
L 341.914544 484.948587 
L 343.513722 483.431218 
L 345.112899 481.550896 
L 346.712077 471.629636 
L 348.311255 473.147005 
L 353.108789 473.147005 
L 354.707967 471.629636 
L 356.307145 471.629636 
L 357.906322 470.112267 
L 359.5055 470.112267 
L 361.104678 468.594897 
L 362.703856 468.594897 
L 364.303034 474.106708 
L 365.902212 474.106708 
L 367.50139 472.589339 
L 369.100567 472.589339 
L 370.699745 474.106708 
L 373.898101 471.07197 
L 375.497279 471.07197 
L 377.096457 472.952293 
L 378.695635 481.356183 
L 380.294812 479.838814 
L 383.493168 479.838814 
L 385.092346 481.356183 
L 386.691524 481.356183 
L 388.290702 479.838814 
L 389.88988 481.356183 
L 391.489057 478.138478 
L 393.088235 476.258155 
L 394.687413 476.258155 
L 396.286591 474.740786 
L 397.885769 476.258155 
L 399.484947 472.738577 
L 401.084125 464.981955 
L 402.683302 459.945008 
L 405.881658 452.905852 
L 407.480836 445.99951 
L 412.27837 427.281753 
L 413.877547 419.525132 
L 415.476725 418.007763 
L 420.274259 418.007763 
L 421.873437 414.790057 
L 423.472615 416.490394 
L 425.071792 418.370716 
L 426.67097 416.853347 
L 428.270148 416.853347 
L 429.869326 415.335978 
L 431.468504 418.855556 
L 433.067682 425.094808 
L 437.865215 435.653543 
L 439.464393 442.559885 
L 444.261927 461.277641 
L 445.861105 463.522452 
L 450.658638 463.522452 
L 452.257816 465.039821 
L 453.856994 466.740157 
L 455.456172 464.859835 
L 460.253705 464.859835 
L 468.249595 455.458222 
L 469.848773 443.18262 
L 471.44795 443.18262 
L 476.245484 437.541652 
L 477.844662 439.835758 
L 479.44384 439.835758 
L 481.043018 436.618052 
L 482.642195 432.374689 
L 484.241373 430.85732 
L 485.840551 430.85732 
L 487.439729 432.737643 
L 492.237263 432.737643 
L 493.83644 434.617965 
L 495.435618 438.015657 
L 498.633974 441.776302 
L 500.233152 445.173994 
L 501.83233 458.966965 
L 503.431508 460.484334 
L 506.629863 467.279718 
L 508.229041 469.16004 
L 509.828219 470.860377 
L 511.427397 472.377746 
L 513.026575 475.595452 
L 514.625753 481.356183 
L 519.423286 485.908291 
L 521.022464 485.908291 
L 524.22082 488.943029 
L 527.419176 488.943029 
L 530.617531 491.977767 
L 532.216709 491.977767 
L 538.613421 485.908291 
L 540.212598 485.908291 
L 541.811776 487.42566 
L 545.010132 484.390922 
L 551.406843 484.390922 
L 553.006021 485.908291 
L 556.204377 485.908291 
L 557.803555 487.42566 
L 564.200266 487.42566 
L 570.596978 493.495137 
L 572.196156 494.852783 
L 573.795333 494.675313 
L 575.394511 496.262104 
L 576.993689 498.047244 
L 584.989579 498.047244 
L 584.989579 498.047244 
" style="fill:none;stroke:#d62728;stroke-dasharray:3,1,1.5,1;stroke-dashoffset:0;"/>
   </g>
   <g id="line2d_52"/>
   <g id="line2d_53"/>
   <g id="line2d_54"/>
   <g id="line2d_55"/>
   <g id="patch_3">
    <path d="M 105.23622 529.795276 
L 105.23622 71.433071 
" style="fill:none;stroke:#000000;stroke-linecap:square;stroke-linejoin:miter;stroke-width:0.8;"/>
   </g>
   <g id="patch_4">
    <path d="M 757.700787 529.795276 
L 757.700787 71.433071 
" style="fill:none;stroke:#000000;stroke-linecap:square;stroke-linejoin:miter;stroke-width:0.8;"/>
   </g>
   <g id="patch_5">
    <path d="M 105.23622 529.795276 
L 757.700787 529.795276 
" style="fill:none;stroke:#000000;stroke-linecap:square;stroke-linejoin:miter;stroke-width:0.8;"/>
   </g>
   <g id="patch_6">
    <path d="M 105.23622 71.433071 
L 757.700787 71.433071 
" style="fill:none;stroke:#000000;stroke-linecap:square;stroke-linejoin:miter;stroke-width:0.8;"/>
   </g>
   <g id="legend_1">
    <g id="patch_7">
     <path d="M 462.47735 139.258071 
L 750.700787 139.258071 
Q 752.700787 139.258071 752.700787 137.258071 
L 752.700787 78.433071 
Q 752.700787 76.433071 750.700787 76.433071 
L 462.47735 76.433071 
Q 460.47735 76.433071 460.47735 78.433071 
L 460.47735 137.258071 
Q 460.47735 139.258071 462.47735 139.258071 
z
" style="fill:#ffffff;opacity:0.8;stroke:#cccccc;stroke-linejoin:miter;"/>
    </g>
    <g id="line2d_56">
     <path d="M 464.47735 84.531508 
L 484.47735 84.531508 
" style="fill:none;stroke:#1f77b4;stroke-linecap:square;stroke-width:1.5;"/>
    </g>
    <g id="line2d_57"/>
    <g id="text_50">
     <!-- seqs_for_divaa/VEGFA121_final_aligned_noSP.fasta -->
     <defs>
      <path d="M 14.796875 27.296875 
Q 14.796875 17.390625 18.875 11.75 
Q 22.953125 6.109375 30.078125 6.109375 
Q 37.203125 6.109375 41.296875 11.75 
Q 45.40625 17.390625 45.40625 27.296875 
Q 45.40625 37.203125 41.296875 42.84375 
Q 37.203125 48.484375 30.078125 48.484375 
Q 22.953125 48.484375 18.875 42.84375 
Q 14.796875 37.203125 14.796875 27.296875 
z
M 45.40625 8.203125 
Q 42.578125 3.328125 38.25 0.953125 
Q 33.9375 -1.421875 27.875 -1.421875 
Q 17.96875 -1.421875 11.734375 6.484375 
Q 5.515625 14.40625 5.515625 27.296875 
Q 5.515625 40.1875 11.734375 48.09375 
Q 17.96875 56 27.875 56 
Q 33.9375 56 38.25 53.625 
Q 42.578125 51.265625 45.40625 46.390625 
L 45.40625 54.6875 
L 54.390625 54.6875 
L 54.390625 -20.796875 
L 45.40625 -20.796875 
z
" id="DejaVuSans-113"/>
      <path d="M 50.984375 -16.609375 
L 50.984375 -23.578125 
L -0.984375 -23.578125 
L -0.984375 -16.609375 
z
" id="DejaVuSans-95"/>
      <path d="M 37.109375 75.984375 
L 37.109375 68.5 
L 28.515625 68.5 
Q 23.6875 68.5 21.796875 66.546875 
Q 19.921875 64.59375 19.921875 59.515625 
L 19.921875 54.6875 
L 34.71875 54.6875 
L 34.71875 47.703125 
L 19.921875 47.703125 
L 19.921875 0 
L 10.890625 0 
L 10.890625 47.703125 
L 2.296875 47.703125 
L 2.296875 54.6875 
L 10.890625 54.6875 
L 10.890625 58.5 
Q 10.890625 67.625 15.140625 71.796875 
Q 19.390625 75.984375 28.609375 75.984375 
z
" id="DejaVuSans-102"/>
      <path d="M 25.390625 72.90625 
L 33.6875 72.90625 
L 8.296875 -9.28125 
L 0 -9.28125 
z
" id="DejaVuSans-47"/>
      <path d="M 28.609375 0 
L 0.78125 72.90625 
L 11.078125 72.90625 
L 34.1875 11.53125 
L 57.328125 72.90625 
L 67.578125 72.90625 
L 39.796875 0 
z
" id="DejaVuSans-86"/>
      <path d="M 9.8125 72.90625 
L 55.90625 72.90625 
L 55.90625 64.59375 
L 19.671875 64.59375 
L 19.671875 43.015625 
L 54.390625 43.015625 
L 54.390625 34.71875 
L 19.671875 34.71875 
L 19.671875 8.296875 
L 56.78125 8.296875 
L 56.78125 0 
L 9.8125 0 
z
" id="DejaVuSans-69"/>
      <path d="M 59.515625 10.40625 
L 59.515625 29.984375 
L 43.40625 29.984375 
L 43.40625 38.09375 
L 69.28125 38.09375 
L 69.28125 6.78125 
Q 63.578125 2.734375 56.6875 0.65625 
Q 49.8125 -1.421875 42 -1.421875 
Q 24.90625 -1.421875 15.25 8.5625 
Q 5.609375 18.5625 5.609375 36.375 
Q 5.609375 54.25 15.25 64.234375 
Q 24.90625 74.21875 42 74.21875 
Q 49.125 74.21875 55.546875 72.453125 
Q 61.96875 70.703125 67.390625 67.28125 
L 67.390625 56.78125 
Q 61.921875 61.421875 55.765625 63.765625 
Q 49.609375 66.109375 42.828125 66.109375 
Q 29.4375 66.109375 22.71875 58.640625 
Q 16.015625 51.171875 16.015625 36.375 
Q 16.015625 21.625 22.71875 14.15625 
Q 29.4375 6.6875 42.828125 6.6875 
Q 48.046875 6.6875 52.140625 7.59375 
Q 56.25 8.5 59.515625 10.40625 
z
" id="DejaVuSans-71"/>
      <path d="M 9.8125 72.90625 
L 51.703125 72.90625 
L 51.703125 64.59375 
L 19.671875 64.59375 
L 19.671875 43.109375 
L 48.578125 43.109375 
L 48.578125 34.8125 
L 19.671875 34.8125 
L 19.671875 0 
L 9.8125 0 
z
" id="DejaVuSans-70"/>
      <path d="M 34.1875 63.1875 
L 20.796875 26.90625 
L 47.609375 26.90625 
z
M 28.609375 72.90625 
L 39.796875 72.90625 
L 67.578125 0 
L 57.328125 0 
L 50.6875 18.703125 
L 17.828125 18.703125 
L 11.1875 0 
L 0.78125 0 
z
" id="DejaVuSans-65"/>
      <path d="M 9.421875 75.984375 
L 18.40625 75.984375 
L 18.40625 0 
L 9.421875 0 
z
" id="DejaVuSans-108"/>
      <path d="M 45.40625 27.984375 
Q 45.40625 37.75 41.375 43.109375 
Q 37.359375 48.484375 30.078125 48.484375 
Q 22.859375 48.484375 18.828125 43.109375 
Q 14.796875 37.75 14.796875 27.984375 
Q 14.796875 18.265625 18.828125 12.890625 
Q 22.859375 7.515625 30.078125 7.515625 
Q 37.359375 7.515625 41.375 12.890625 
Q 45.40625 18.265625 45.40625 27.984375 
z
M 54.390625 6.78125 
Q 54.390625 -7.171875 48.1875 -13.984375 
Q 42 -20.796875 29.203125 -20.796875 
Q 24.46875 -20.796875 20.265625 -20.09375 
Q 16.0625 -19.390625 12.109375 -17.921875 
L 12.109375 -9.1875 
Q 16.0625 -11.328125 19.921875 -12.34375 
Q 23.78125 -13.375 27.78125 -13.375 
Q 36.625 -13.375 41.015625 -8.765625 
Q 45.40625 -4.15625 45.40625 5.171875 
L 45.40625 9.625 
Q 42.625 4.78125 38.28125 2.390625 
Q 33.9375 0 27.875 0 
Q 17.828125 0 11.671875 7.65625 
Q 5.515625 15.328125 5.515625 27.984375 
Q 5.515625 40.671875 11.671875 48.328125 
Q 17.828125 56 27.875 56 
Q 33.9375 56 38.28125 53.609375 
Q 42.625 51.21875 45.40625 46.390625 
L 45.40625 54.6875 
L 54.390625 54.6875 
z
" id="DejaVuSans-103"/>
      <path d="M 53.515625 70.515625 
L 53.515625 60.890625 
Q 47.90625 63.578125 42.921875 64.890625 
Q 37.9375 66.21875 33.296875 66.21875 
Q 25.25 66.21875 20.875 63.09375 
Q 16.5 59.96875 16.5 54.203125 
Q 16.5 49.359375 19.40625 46.890625 
Q 22.3125 44.4375 30.421875 42.921875 
L 36.375 41.703125 
Q 47.40625 39.59375 52.65625 34.296875 
Q 57.90625 29 57.90625 20.125 
Q 57.90625 9.515625 50.796875 4.046875 
Q 43.703125 -1.421875 29.984375 -1.421875 
Q 24.8125 -1.421875 18.96875 -0.25 
Q 13.140625 0.921875 6.890625 3.21875 
L 6.890625 13.375 
Q 12.890625 10.015625 18.65625 8.296875 
Q 24.421875 6.59375 29.984375 6.59375 
Q 38.421875 6.59375 43.015625 9.90625 
Q 47.609375 13.234375 47.609375 19.390625 
Q 47.609375 24.75 44.3125 27.78125 
Q 41.015625 30.8125 33.5 32.328125 
L 27.484375 33.5 
Q 16.453125 35.6875 11.515625 40.375 
Q 6.59375 45.0625 6.59375 53.421875 
Q 6.59375 63.09375 13.40625 68.65625 
Q 20.21875 74.21875 32.171875 74.21875 
Q 37.3125 74.21875 42.625 73.28125 
Q 47.953125 72.359375 53.515625 70.515625 
z
" id="DejaVuSans-83"/>
      <path d="M 19.671875 64.796875 
L 19.671875 37.40625 
L 32.078125 37.40625 
Q 38.96875 37.40625 42.71875 40.96875 
Q 46.484375 44.53125 46.484375 51.125 
Q 46.484375 57.671875 42.71875 61.234375 
Q 38.96875 64.796875 32.078125 64.796875 
z
M 9.8125 72.90625 
L 32.078125 72.90625 
Q 44.34375 72.90625 50.609375 67.359375 
Q 56.890625 61.8125 56.890625 51.125 
Q 56.890625 40.328125 50.609375 34.8125 
Q 44.34375 29.296875 32.078125 29.296875 
L 19.671875 29.296875 
L 19.671875 0 
L 9.8125 0 
z
" id="DejaVuSans-80"/>
     </defs>
     <g transform="translate(492.47735 88.031508)scale(0.1 -0.1)">
      <use xlink:href="#DejaVuSans-115"/>
      <use x="52.099609" xlink:href="#DejaVuSans-101"/>
      <use x="113.623047" xlink:href="#DejaVuSans-113"/>
      <use x="177.099609" xlink:href="#DejaVuSans-115"/>
      <use x="229.199219" xlink:href="#DejaVuSans-95"/>
      <use x="279.199219" xlink:href="#DejaVuSans-102"/>
      <use x="314.404297" xlink:href="#DejaVuSans-111"/>
      <use x="375.585938" xlink:href="#DejaVuSans-114"/>
      <use x="416.699219" xlink:href="#DejaVuSans-95"/>
      <use x="466.699219" xlink:href="#DejaVuSans-100"/>
      <use x="530.175781" xlink:href="#DejaVuSans-105"/>
      <use x="557.958984" xlink:href="#DejaVuSans-118"/>
      <use x="617.138672" xlink:href="#DejaVuSans-97"/>
      <use x="678.417969" xlink:href="#DejaVuSans-97"/>
      <use x="739.697266" xlink:href="#DejaVuSans-47"/>
      <use x="773.388672" xlink:href="#DejaVuSans-86"/>
      <use x="841.796875" xlink:href="#DejaVuSans-69"/>
      <use x="904.980469" xlink:href="#DejaVuSans-71"/>
      <use x="982.470703" xlink:href="#DejaVuSans-70"/>
      <use x="1039.849609" xlink:href="#DejaVuSans-65"/>
      <use x="1108.257812" xlink:href="#DejaVuSans-49"/>
      <use x="1171.880859" xlink:href="#DejaVuSans-50"/>
      <use x="1235.503906" xlink:href="#DejaVuSans-49"/>
      <use x="1299.126953" xlink:href="#DejaVuSans-95"/>
      <use x="1349.126953" xlink:href="#DejaVuSans-102"/>
      <use x="1384.332031" xlink:href="#DejaVuSans-105"/>
      <use x="1412.115234" xlink:href="#DejaVuSans-110"/>
      <use x="1475.494141" xlink:href="#DejaVuSans-97"/>
      <use x="1536.773438" xlink:href="#DejaVuSans-108"/>
      <use x="1564.556641" xlink:href="#DejaVuSans-95"/>
      <use x="1614.556641" xlink:href="#DejaVuSans-97"/>
      <use x="1675.835938" xlink:href="#DejaVuSans-108"/>
      <use x="1703.619141" xlink:href="#DejaVuSans-105"/>
      <use x="1731.402344" xlink:href="#DejaVuSans-103"/>
      <use x="1794.878906" xlink:href="#DejaVuSans-110"/>
      <use x="1858.257812" xlink:href="#DejaVuSans-101"/>
      <use x="1919.78125" xlink:href="#DejaVuSans-100"/>
      <use x="1983.257812" xlink:href="#DejaVuSans-95"/>
      <use x="2033.257812" xlink:href="#DejaVuSans-110"/>
      <use x="2096.636719" xlink:href="#DejaVuSans-111"/>
      <use x="2157.818359" xlink:href="#DejaVuSans-83"/>
      <use x="2221.294922" xlink:href="#DejaVuSans-80"/>
      <use x="2281.363281" xlink:href="#DejaVuSans-46"/>
      <use x="2313.150391" xlink:href="#DejaVuSans-102"/>
      <use x="2348.355469" xlink:href="#DejaVuSans-97"/>
      <use x="2409.634766" xlink:href="#DejaVuSans-115"/>
      <use x="2461.734375" xlink:href="#DejaVuSans-116"/>
      <use x="2500.943359" xlink:href="#DejaVuSans-97"/>
     </g>
    </g>
    <g id="line2d_58">
     <path d="M 464.47735 99.487758 
L 484.47735 99.487758 
" style="fill:none;stroke:#ff7f0e;stroke-dasharray:6,2.25;stroke-dashoffset:0;stroke-width:1.5;"/>
    </g>
    <g id="line2d_59"/>
    <g id="text_51">
     <!-- seqs_for_divaa/VEGFA165_final_aligned_noSP.fasta -->
     <g transform="translate(492.47735 102.987758)scale(0.1 -0.1)">
      <use xlink:href="#DejaVuSans-115"/>
      <use x="52.099609" xlink:href="#DejaVuSans-101"/>
      <use x="113.623047" xlink:href="#DejaVuSans-113"/>
      <use x="177.099609" xlink:href="#DejaVuSans-115"/>
      <use x="229.199219" xlink:href="#DejaVuSans-95"/>
      <use x="279.199219" xlink:href="#DejaVuSans-102"/>
      <use x="314.404297" xlink:href="#DejaVuSans-111"/>
      <use x="375.585938" xlink:href="#DejaVuSans-114"/>
      <use x="416.699219" xlink:href="#DejaVuSans-95"/>
      <use x="466.699219" xlink:href="#DejaVuSans-100"/>
      <use x="530.175781" xlink:href="#DejaVuSans-105"/>
      <use x="557.958984" xlink:href="#DejaVuSans-118"/>
      <use x="617.138672" xlink:href="#DejaVuSans-97"/>
      <use x="678.417969" xlink:href="#DejaVuSans-97"/>
      <use x="739.697266" xlink:href="#DejaVuSans-47"/>
      <use x="773.388672" xlink:href="#DejaVuSans-86"/>
      <use x="841.796875" xlink:href="#DejaVuSans-69"/>
      <use x="904.980469" xlink:href="#DejaVuSans-71"/>
      <use x="982.470703" xlink:href="#DejaVuSans-70"/>
      <use x="1039.849609" xlink:href="#DejaVuSans-65"/>
      <use x="1108.257812" xlink:href="#DejaVuSans-49"/>
      <use x="1171.880859" xlink:href="#DejaVuSans-54"/>
      <use x="1235.503906" xlink:href="#DejaVuSans-53"/>
      <use x="1299.126953" xlink:href="#DejaVuSans-95"/>
      <use x="1349.126953" xlink:href="#DejaVuSans-102"/>
      <use x="1384.332031" xlink:href="#DejaVuSans-105"/>
      <use x="1412.115234" xlink:href="#DejaVuSans-110"/>
      <use x="1475.494141" xlink:href="#DejaVuSans-97"/>
      <use x="1536.773438" xlink:href="#DejaVuSans-108"/>
      <use x="1564.556641" xlink:href="#DejaVuSans-95"/>
      <use x="1614.556641" xlink:href="#DejaVuSans-97"/>
      <use x="1675.835938" xlink:href="#DejaVuSans-108"/>
      <use x="1703.619141" xlink:href="#DejaVuSans-105"/>
      <use x="1731.402344" xlink:href="#DejaVuSans-103"/>
      <use x="1794.878906" xlink:href="#DejaVuSans-110"/>
      <use x="1858.257812" xlink:href="#DejaVuSans-101"/>
      <use x="1919.78125" xlink:href="#DejaVuSans-100"/>
      <use x="1983.257812" xlink:href="#DejaVuSans-95"/>
      <use x="2033.257812" xlink:href="#DejaVuSans-110"/>
      <use x="2096.636719" xlink:href="#DejaVuSans-111"/>
      <use x="2157.818359" xlink:href="#DejaVuSans-83"/>
      <use x="2221.294922" xlink:href="#DejaVuSans-80"/>
      <use x="2281.363281" xlink:href="#DejaVuSans-46"/>
      <use x="2313.150391" xlink:href="#DejaVuSans-102"/>
      <use x="2348.355469" xlink:href="#DejaVuSans-97"/>
      <use x="2409.634766" xlink:href="#DejaVuSans-115"/>
      <use x="2461.734375" xlink:href="#DejaVuSans-116"/>
      <use x="2500.943359" xlink:href="#DejaVuSans-97"/>
     </g>
    </g>
    <g id="line2d_60">
     <path d="M 464.47735 114.444008 
L 484.47735 114.444008 
" style="fill:none;stroke:#2ca02c;stroke-dasharray:1.5,1.5;stroke-dashoffset:0;stroke-width:1.5;"/>
    </g>
    <g id="line2d_61"/>
    <g id="text_52">
     <!-- seqs_for_divaa/VEGFA189_final_aligned_noSP.fasta -->
     <g transform="translate(492.47735 117.944008)scale(0.1 -0.1)">
      <use xlink:href="#DejaVuSans-115"/>
      <use x="52.099609" xlink:href="#DejaVuSans-101"/>
      <use x="113.623047" xlink:href="#DejaVuSans-113"/>
      <use x="177.099609" xlink:href="#DejaVuSans-115"/>
      <use x="229.199219" xlink:href="#DejaVuSans-95"/>
      <use x="279.199219" xlink:href="#DejaVuSans-102"/>
      <use x="314.404297" xlink:href="#DejaVuSans-111"/>
      <use x="375.585938" xlink:href="#DejaVuSans-114"/>
      <use x="416.699219" xlink:href="#DejaVuSans-95"/>
      <use x="466.699219" xlink:href="#DejaVuSans-100"/>
      <use x="530.175781" xlink:href="#DejaVuSans-105"/>
      <use x="557.958984" xlink:href="#DejaVuSans-118"/>
      <use x="617.138672" xlink:href="#DejaVuSans-97"/>
      <use x="678.417969" xlink:href="#DejaVuSans-97"/>
      <use x="739.697266" xlink:href="#DejaVuSans-47"/>
      <use x="773.388672" xlink:href="#DejaVuSans-86"/>
      <use x="841.796875" xlink:href="#DejaVuSans-69"/>
      <use x="904.980469" xlink:href="#DejaVuSans-71"/>
      <use x="982.470703" xlink:href="#DejaVuSans-70"/>
      <use x="1039.849609" xlink:href="#DejaVuSans-65"/>
      <use x="1108.257812" xlink:href="#DejaVuSans-49"/>
      <use x="1171.880859" xlink:href="#DejaVuSans-56"/>
      <use x="1235.503906" xlink:href="#DejaVuSans-57"/>
      <use x="1299.126953" xlink:href="#DejaVuSans-95"/>
      <use x="1349.126953" xlink:href="#DejaVuSans-102"/>
      <use x="1384.332031" xlink:href="#DejaVuSans-105"/>
      <use x="1412.115234" xlink:href="#DejaVuSans-110"/>
      <use x="1475.494141" xlink:href="#DejaVuSans-97"/>
      <use x="1536.773438" xlink:href="#DejaVuSans-108"/>
      <use x="1564.556641" xlink:href="#DejaVuSans-95"/>
      <use x="1614.556641" xlink:href="#DejaVuSans-97"/>
      <use x="1675.835938" xlink:href="#DejaVuSans-108"/>
      <use x="1703.619141" xlink:href="#DejaVuSans-105"/>
      <use x="1731.402344" xlink:href="#DejaVuSans-103"/>
      <use x="1794.878906" xlink:href="#DejaVuSans-110"/>
      <use x="1858.257812" xlink:href="#DejaVuSans-101"/>
      <use x="1919.78125" xlink:href="#DejaVuSans-100"/>
      <use x="1983.257812" xlink:href="#DejaVuSans-95"/>
      <use x="2033.257812" xlink:href="#DejaVuSans-110"/>
      <use x="2096.636719" xlink:href="#DejaVuSans-111"/>
      <use x="2157.818359" xlink:href="#DejaVuSans-83"/>
      <use x="2221.294922" xlink:href="#DejaVuSans-80"/>
      <use x="2281.363281" xlink:href="#DejaVuSans-46"/>
      <use x="2313.150391" xlink:href="#DejaVuSans-102"/>
      <use x="2348.355469" xlink:href="#DejaVuSans-97"/>
      <use x="2409.634766" xlink:href="#DejaVuSans-115"/>
      <use x="2461.734375" xlink:href="#DejaVuSans-116"/>
      <use x="2500.943359" xlink:href="#DejaVuSans-97"/>
     </g>
    </g>
    <g id="line2d_62">
     <path d="M 464.47735 129.400258 
L 484.47735 129.400258 
" style="fill:none;stroke:#d62728;stroke-dasharray:4.5,1.5,2.25,1.5;stroke-dashoffset:0;stroke-width:1.5;"/>
    </g>
    <g id="line2d_63"/>
    <g id="text_53">
     <!-- seqs_for_divaa/VEGFA206_final_aligned_noSP.fasta -->
     <g transform="translate(492.47735 132.900258)scale(0.1 -0.1)">
      <use xlink:href="#DejaVuSans-115"/>
      <use x="52.099609" xlink:href="#DejaVuSans-101"/>
      <use x="113.623047" xlink:href="#DejaVuSans-113"/>
      <use x="177.099609" xlink:href="#DejaVuSans-115"/>
      <use x="229.199219" xlink:href="#DejaVuSans-95"/>
      <use x="279.199219" xlink:href="#DejaVuSans-102"/>
      <use x="314.404297" xlink:href="#DejaVuSans-111"/>
      <use x="375.585938" xlink:href="#DejaVuSans-114"/>
      <use x="416.699219" xlink:href="#DejaVuSans-95"/>
      <use x="466.699219" xlink:href="#DejaVuSans-100"/>
      <use x="530.175781" xlink:href="#DejaVuSans-105"/>
      <use x="557.958984" xlink:href="#DejaVuSans-118"/>
      <use x="617.138672" xlink:href="#DejaVuSans-97"/>
      <use x="678.417969" xlink:href="#DejaVuSans-97"/>
      <use x="739.697266" xlink:href="#DejaVuSans-47"/>
      <use x="773.388672" xlink:href="#DejaVuSans-86"/>
      <use x="841.796875" xlink:href="#DejaVuSans-69"/>
      <use x="904.980469" xlink:href="#DejaVuSans-71"/>
      <use x="982.470703" xlink:href="#DejaVuSans-70"/>
      <use x="1039.849609" xlink:href="#DejaVuSans-65"/>
      <use x="1108.257812" xlink:href="#DejaVuSans-50"/>
      <use x="1171.880859" xlink:href="#DejaVuSans-48"/>
      <use x="1235.503906" xlink:href="#DejaVuSans-54"/>
      <use x="1299.126953" xlink:href="#DejaVuSans-95"/>
      <use x="1349.126953" xlink:href="#DejaVuSans-102"/>
      <use x="1384.332031" xlink:href="#DejaVuSans-105"/>
      <use x="1412.115234" xlink:href="#DejaVuSans-110"/>
      <use x="1475.494141" xlink:href="#DejaVuSans-97"/>
      <use x="1536.773438" xlink:href="#DejaVuSans-108"/>
      <use x="1564.556641" xlink:href="#DejaVuSans-95"/>
      <use x="1614.556641" xlink:href="#DejaVuSans-97"/>
      <use x="1675.835938" xlink:href="#DejaVuSans-108"/>
      <use x="1703.619141" xlink:href="#DejaVuSans-105"/>
      <use x="1731.402344" xlink:href="#DejaVuSans-103"/>
      <use x="1794.878906" xlink:href="#DejaVuSans-110"/>
      <use x="1858.257812" xlink:href="#DejaVuSans-101"/>
      <use x="1919.78125" xlink:href="#DejaVuSans-100"/>
      <use x="1983.257812" xlink:href="#DejaVuSans-95"/>
      <use x="2033.257812" xlink:href="#DejaVuSans-110"/>
      <use x="2096.636719" xlink:href="#DejaVuSans-111"/>
      <use x="2157.818359" xlink:href="#DejaVuSans-83"/>
      <use x="2221.294922" xlink:href="#DejaVuSans-80"/>
      <use x="2281.363281" xlink:href="#DejaVuSans-46"/>
      <use x="2313.150391" xlink:href="#DejaVuSans-102"/>
      <use x="2348.355469" xlink:href="#DejaVuSans-97"/>
      <use x="2409.634766" xlink:href="#DejaVuSans-115"/>
      <use x="2461.734375" xlink:href="#DejaVuSans-116"/>
      <use x="2500.943359" xlink:href="#DejaVuSans-97"/>
     </g>
    </g>
   </g>
  </g>
 </g>
 <defs>
  <clipPath id="p2673842ea9">
   <rect height="458.362205" width="652.464567" x="105.23622" y="71.433071"/>
  </clipPath>
 </defs>
</svg>
